<?xml version="1.0" encoding="utf-8"?>
<svg width="310.09207px" height="301.48004px" viewBox="0 0 310.09207 301.48004" version="1.1" xmlns:xlink="http://www.w3.org/1999/xlink" xmlns="http://www.w3.org/2000/svg">
  <path d="M117.416 95.5046C122.681 96.2368 128.022 96.2368 133.287 95.5046C133.12 98.2661 133.447 101.035 134.253 103.682C135.777 107.882 138.416 107.398 142.616 107.398L154.138 107.398L154.547 107.398C158.97 107.398 163.393 107.398 167.779 107.138L168.968 107.138C169.465 107.416 170.07 107.416 170.567 107.138C173.463 107.329 176.226 105.898 177.74 103.421C183.018 95.3931 182.609 80.0055 174.544 73.91C169.191 69.8586 161.795 70.7878 155.551 71.1223C147.79 71.54 140.059 72.3962 132.395 73.6869C127.972 74.4303 129.533 80.6002 133.547 80.8232L133.547 80.8232L135.257 80.6002C134.774 82.9789 134.291 85.6922 133.882 88.4798C128.759 87.6804 123.543 87.6804 118.42 88.4798C113.328 88.74 106.08 87.7365 102.103 91.3417C101.961 91.4618 101.878 91.6387 101.878 91.825C101.878 92.0112 101.961 92.188 102.103 92.3081C105.783 96.0993 112.584 95.3188 117.416 95.5046L117.416 95.5046ZM158.933 78.7047C164.285 78.5188 170.567 78.1843 172.983 84.1312C174.776 88.9564 174.354 94.3262 171.83 98.8126C171.503 99.1771 171.113 99.4794 170.678 99.7047C170.064 97.1257 169.814 94.4734 169.935 91.825C169.935 90.2268 167.63 89.7064 167.482 91.3047C167.029 94.4805 166.818 97.6862 166.85 100.894L165.4 101.08C165.4 100.299 165.4 99.5188 165.4 98.7383C165.343 96.4423 165.442 94.145 165.698 91.8623C165.751 91.2276 165.324 90.6523 164.701 90.5201C164.078 90.388 163.453 90.7402 163.245 91.3419C162.424 94.5867 162 97.9189 161.981 101.266L160.606 101.266C160.606 100.448 160.383 99.6304 160.345 98.8499C160.263 96.2947 160.35 93.7369 160.606 91.1933C160.639 90.5853 160.222 90.0447 159.625 89.9235C159.028 89.8022 158.433 90.1371 158.227 90.7101C157.226 94.1238 156.762 97.6724 156.852 101.229L155.699 101.229C155.699 100.448 155.699 99.6676 155.699 98.9242C155.699 95.8765 155.439 92.7915 155.105 89.7437C155.105 89.3852 154.913 89.0539 154.603 88.8746C154.292 88.6953 153.91 88.6953 153.599 88.8746C153.289 89.0539 153.098 89.3852 153.098 89.7437C152.444 92.4611 152.07 95.2384 151.983 98.0321C151.983 98.9984 151.983 100.039 151.983 101.08L149.715 101.08C149.492 99.8162 149.232 98.5153 149.009 97.363C148.761 94.4471 148.059 91.5878 146.928 88.8888C146.777 88.5852 146.468 88.3932 146.129 88.3932C145.79 88.3932 145.48 88.5852 145.33 88.8888C144.869 91.8319 144.869 94.8288 145.33 97.772C145.33 98.8499 145.33 100.002 145.515 101.117L144.846 101.117C144.315 98.4681 143.967 95.7856 143.806 93.0887C144.278 90.0051 144.126 86.8579 143.36 83.8339C143.261 83.7086 143.11 83.6354 142.951 83.6354C142.791 83.6354 142.641 83.7086 142.542 83.8339C139.94 86.1383 140.089 90.6728 140.052 93.9064C140.052 94.91 140.052 95.9135 140.052 96.9171C139.72 95.4424 139.608 93.9271 139.717 92.4197C139.717 88.4799 139.494 84.5401 139.271 80.6003C145.961 79.6339 152.429 78.9648 158.97 78.7418L158.933 78.7047ZM99.948 218.914L99.948 218.207C99.6504 217.546 99.2055 216.961 98.6471 216.497C97.0117 208.394 99.0932 196.982 99.1303 189.213C99.1303 178.285 99.1303 167.394 99.1303 156.465C99.7585 135.652 99.2747 114.818 97.6809 94.0546C97.6809 93.2368 96.4171 93.3112 96.3057 94.0546C92.5888 117.027 92.0313 140.482 90.7676 163.714C89.8012 181.52 84.003 206.127 88.9464 223.189C89.8384 226.274 93.6667 226.906 96.38 226.051L97.3835 225.754C99.8745 224.477 100.985 221.514 99.948 218.914L99.948 218.914ZM91.6967 216.089L92.1427 216.089C91.826 216.326 91.539 216.6 91.2878 216.906L91.6967 216.089ZM196.027 219.119C164.673 213.36 132.428 214.694 101.657 223.021C100.553 223.302 99.8203 224.347 99.9317 225.48C100.043 226.614 100.966 227.496 102.103 227.556C117.49 228.931 133.138 227.147 148.6 227.147C164.062 227.147 180.082 228.931 195.618 227.147C197.339 226.622 198.547 225.074 198.639 223.276C198.731 221.479 197.686 219.816 196.027 219.119L196.027 219.119ZM182.494 89.037C187.654 90.2316 192.879 91.1252 198.143 91.7133C202.715 92.4196 207.064 93.9808 211.377 92.0479C212.001 91.6686 212.417 91.0234 212.504 90.2979C212.591 89.5723 212.34 88.847 211.823 88.3307C208.105 85.357 203.162 86.0633 198.441 85.9146C193.196 85.5855 187.932 85.7473 182.717 86.3978C182.148 86.5558 181.738 87.0513 181.688 87.6398C181.638 88.2283 181.959 88.7856 182.494 89.037L182.494 89.037ZM215.573 229.68C215.591 229.445 215.591 229.209 215.573 228.974C215.573 228.974 215.573 228.64 215.573 228.454C215.796 183.852 213.157 139.25 211.856 94.6486C211.856 93.4594 209.812 93.4594 209.774 94.6486C208.436 139.25 205.723 183.852 206.057 228.454C205.953 229.282 206.095 230.122 206.466 230.87C207.454 232.338 209.129 233.194 210.898 233.133C212.666 233.073 214.279 232.105 215.164 230.572C215.164 230.572 215.164 230.312 215.164 230.201C215.312 230.037 215.449 229.863 215.573 229.68L215.573 229.68ZM150.829 147.575C152.814 149.681 156.118 149.813 158.264 147.873C169.415 138.358 185.548 127.579 192.387 114.421C193.428 112.414 191.867 109.181 189.228 110.036C176.181 114.31 164.471 126.724 154.584 136.871C149.9 132.597 142.614 126.91 141.202 131.779C139.343 137.837 147.001 143.412 150.829 147.575L150.829 147.575ZM123.213 165.191C132.282 169.131 143.47 168.128 153.245 168.239C163.546 168.922 173.891 168.474 184.095 166.901L184.095 166.901C185.966 166.488 187.261 164.777 187.151 162.864C187.04 160.95 185.556 159.4 183.649 159.207C172.498 157.906 160.344 159.69 149.008 160.285C140.274 160.731 131.13 160.062 122.99 163.444C122.247 163.742 122.507 164.894 123.213 165.191L123.213 165.191ZM190.413 174.296C180.341 172.363 169.934 173.664 159.787 174.296C148.141 174.521 136.538 175.764 125.109 178.013C123.697 178.348 123.139 180.727 124.849 181.099L126.298 181.433C126.544 181.514 126.813 181.461 127.01 181.294C127.207 181.128 127.304 180.871 127.265 180.615C128.566 186.451 184.503 181.805 190.674 180.132C191.904 179.652 192.691 178.441 192.633 177.121C192.574 175.801 191.681 174.666 190.413 174.296L190.413 174.296ZM158.524 188.68C152.651 189.311 146.778 190.092 140.979 191.207C139.38 191.526 138.26 192.974 138.354 194.602C138.448 196.23 139.726 197.54 141.351 197.674C147.596 198.157 153.841 198.269 159.937 198.195C164.174 198.195 169.862 199.087 173.802 197.488C175.199 197.036 176.164 195.759 176.218 194.292L176.218 193.214C176.15 191.019 174.632 189.136 172.501 188.605C168.3 186.933 163.134 188.234 158.524 188.68L158.524 188.68ZM156.442 63.7635C155.451 62.7819 154.119 62.2221 152.724 62.2024C150.422 62.0617 148.355 63.6057 147.836 65.8536C147.318 68.1014 148.5 70.3947 150.632 71.2766C152.763 72.1584 155.22 71.3707 156.442 69.4136L156.107 69.7853C157.818 68.1939 157.966 65.5347 156.442 63.7635L156.442 63.7635ZM154.88 51.2755C153.062 51.2459 151.49 52.535 151.163 54.323C151.029 56.1747 152.368 57.8072 154.211 58.0394C156.029 58.0691 157.601 56.7799 157.928 54.9919C158.061 53.1402 156.722 51.5078 154.88 51.2755L154.88 51.2755ZM221.482 80.451C218.596 80.7822 216.5 83.3555 216.761 86.2487C217.2 89.0704 219.752 91.069 222.597 90.82C225.484 90.4888 227.579 87.9156 227.318 85.0223C226.879 82.2005 224.327 80.202 221.482 80.451L221.482 80.451ZM235.717 76.5115C235.91 74.0522 234.086 71.8964 231.629 71.6798C229.188 71.5462 227.068 73.34 226.796 75.7682C226.603 78.2276 228.427 80.3834 230.885 80.6C233.325 80.7335 235.445 78.9398 235.717 76.5115L235.717 76.5115ZM220.033 146.124C218.553 146.309 217.208 147.076 216.294 148.255C215.381 149.433 214.974 150.927 215.163 152.406C215.641 155.435 218.393 157.568 221.445 157.275C224.494 156.888 226.665 154.121 226.315 151.068C225.873 148.009 223.109 145.835 220.033 146.124L220.033 146.124ZM229.658 151.513C230.25 155.259 233.696 157.868 237.463 157.422C239.262 157.19 240.896 156.254 242.004 154.818C243.112 153.382 243.605 151.565 243.373 149.766C242.782 146.084 239.429 143.496 235.716 143.857C233.89 144.052 232.219 144.973 231.08 146.413C229.94 147.853 229.428 149.691 229.658 151.513L229.658 151.513ZM251.959 157.498C255.136 157.241 257.51 154.469 257.274 151.291C256.943 148.153 254.218 145.82 251.067 145.975C247.89 146.232 245.516 149.005 245.751 152.183C246.083 155.32 248.807 157.653 251.959 157.498L251.959 157.498ZM267.792 151.402C267.614 149.376 265.842 147.87 263.814 148.02C261.788 148.197 260.281 149.969 260.432 151.997C260.609 154.022 262.381 155.529 264.409 155.379C266.435 155.201 267.942 153.429 267.792 151.402L267.792 151.402ZM89.0573 149.729C88.5581 148.994 87.7786 148.497 86.9017 148.354C86.4603 148.264 86.0053 148.264 85.5638 148.354C85.2603 148.36 84.9643 148.45 84.709 148.614L84.3745 148.874L84.0401 149.134C83.8259 149.332 83.6385 149.557 83.4826 149.803L83.2225 150.286C83.2179 150.386 83.2179 150.485 83.2225 150.584C83.187 150.855 83.187 151.13 83.2225 151.401L83.2225 151.401C83.1469 151.694 83.1469 152.001 83.2225 152.293C83.4857 153.662 84.562 154.73 85.9333 154.981C87.3045 155.233 88.6895 154.617 89.4216 153.431C90.1537 152.244 90.0828 150.73 89.2431 149.618L89.0573 149.729ZM71.1441 146.347L68.6907 147.239C64.1185 149.99 67.7242 156.904 72.4078 155.974L72.891 155.974L73.1513 155.974C73.886 155.714 74.5397 155.265 75.0471 154.674L75.2702 154.674C75.3957 154.483 75.5074 154.285 75.6045 154.079L75.7904 153.744C76.2104 152.97 76.4157 152.097 76.3852 151.217C76.3211 150.476 76.0788 149.762 75.6789 149.135C75.0491 147.224 73.1332 146.047 71.1441 146.347L71.1441 146.347ZM58.2467 149.32C55.4963 148.54 55.3475 153.632 58.2467 152.777L58.8042 152.777C59.4872 152.564 59.9521 151.931 59.9521 151.216C59.9521 150.5 59.4872 149.868 58.8042 149.655L58.2467 149.32ZM46.6139 153.52C47.3266 152.456 47.2784 151.056 46.494 150.044C45.7096 149.031 44.3653 148.635 43.1573 149.06C42.296 149.388 41.5652 149.989 41.0759 150.77C40.3631 151.834 40.4114 153.234 41.1959 154.246C41.9803 155.259 43.3245 155.655 44.5325 155.23C45.3939 154.902 46.1245 154.301 46.6139 153.52L46.6139 153.52ZM89.0951 93.014C92.7834 93.1938 95.92 90.3511 96.1029 86.663C96.2858 82.9749 93.4457 79.836 89.7577 79.6499C86.0697 79.464 82.9284 82.3013 82.7393 85.9892C82.6111 89.6638 85.426 92.7751 89.0951 93.014L89.0951 93.014ZM78.019 71.8285C76.4013 72.1478 75.3309 73.6961 75.6034 75.3226L75.6034 75.6572C75.8201 76.8027 76.7819 77.6578 77.9447 77.7388L78.3164 77.7388C79.9736 77.8459 81.4113 76.6063 81.5497 74.951L81.5497 74.5049C81.5953 73.6914 81.2679 72.9016 80.6602 72.3588C80.0525 71.8162 79.2308 71.5799 78.4279 71.717L78.019 71.8285ZM82.3322 226.924C81.731 226.432 81.015 226.099 80.2508 225.958C78.9247 225.735 77.5631 225.876 76.311 226.367C74.6859 227.017 73.461 228.394 73.003 230.084C66.4022 223.475 56.153 222.204 48.1375 226.998C46.3906 228.076 47.0968 231.496 49.4013 231.124C56.426 229.972 64.2685 229.786 69.3234 235.697C74.0294 240.851 73.7654 248.819 68.7287 253.651C63.711 258.223 51.9287 259.041 49.6614 251.16C47.6915 243.986 53.6756 236.552 58.6189 232.834C58.8225 232.716 58.9109 232.468 58.8282 232.247C58.7455 232.026 58.5158 231.898 58.2844 231.942C48.2119 231.496 43.4172 245.213 44.6809 253.465C46.4278 263.947 62.7818 264.616 70.1411 260.23C77.7695 255.642 81.074 246.289 78.0207 237.927C79.3078 238.1 80.6158 237.838 81.7375 237.184C83.1944 236.312 84.2127 234.863 84.5388 233.197C84.8649 231.531 84.4681 229.805 83.4472 228.448C83.1709 227.877 82.7931 227.36 82.3322 226.924L82.3322 226.924ZM78.7641 225.92L78.9871 225.92C77.6491 226.218 77.6491 226.218 78.7641 225.92L78.7641 225.92ZM153.542 233.725C151.7 233.702 150.119 235.03 149.825 236.847C149.674 238.731 151.065 240.387 152.947 240.564C154.788 240.587 156.37 239.259 156.664 237.442C156.815 235.558 155.424 233.902 153.542 233.725L153.542 233.725ZM157.481 240.638L156.923 240.638C155.546 240.915 154.396 241.857 153.853 243.153C153.309 244.448 153.443 245.929 154.21 247.106C155.173 248.516 156.883 249.217 158.559 248.89L158.559 248.89C159.624 248.702 160.565 248.083 161.161 247.18L161.161 247.18L161.532 246.734C162.338 245.393 162.299 243.708 161.433 242.405C160.567 241.103 159.029 240.415 157.481 240.638L157.481 240.638ZM152.835 257.92L152.501 258.515C151.75 260.092 152.198 261.979 153.578 263.049C154.278 263.73 155.248 264.058 156.217 263.941L157.406 263.644C159.029 263.052 160.03 261.419 159.822 259.704L159.822 259.147C159.636 255.133 154.507 255.133 152.835 257.92L152.835 257.92ZM220.702 210.793C219.585 210.914 218.563 211.478 217.864 212.358C217.165 213.238 216.849 214.361 216.984 215.476C217.293 217.772 219.362 219.413 221.668 219.192C222.785 219.071 223.807 218.508 224.506 217.628C225.204 216.748 225.521 215.625 225.385 214.51C225.076 212.214 223.008 210.573 220.702 210.793L220.702 210.793ZM231.739 229.934C233.393 230.034 234.861 228.88 235.155 227.25C235.449 225.619 234.476 224.026 232.892 223.542C232.321 223.375 231.715 223.375 231.145 223.542L231.145 223.542C230.229 223.693 229.442 224.273 229.026 225.103L229.026 225.103C228.924 225.268 228.837 225.442 228.766 225.623C228.733 225.882 228.733 226.144 228.766 226.403L228.766 226.403C228.753 226.576 228.753 226.75 228.766 226.924C228.766 226.924 228.766 226.924 228.766 226.924C228.746 227.134 228.746 227.345 228.766 227.555L228.766 227.555C228.766 227.555 228.766 227.778 228.766 227.853L228.766 227.853C229.201 229.118 230.402 229.958 231.739 229.934L231.739 229.934ZM238.988 38.8248C238.199 39.1021 237.671 39.8471 237.671 40.6832C237.671 41.5193 238.199 42.2643 238.988 42.5416L241.59 42.8761C235.122 45.9249 231.508 52.9375 232.78 59.9734C234.868 70.1837 244.388 77.1253 254.749 75.9928C265.9 75.0636 273.334 62.761 270.472 51.9451C267.201 39.5682 249.842 35.8514 238.988 38.8248L238.988 38.8248ZM261.737 67.6671C255.789 74.9149 242.891 70.7521 238.951 63.9503C234.341 55.8477 238.951 47.8194 246.385 43.8053C251.094 44.3097 255.649 45.7773 259.767 48.1168C266.16 52.2052 266.495 61.8689 261.737 67.6671L261.737 67.6671ZM160.792 34.8496C171.721 34.5151 178.672 23.2903 176.813 12.9948C174.397 -0.274261 159.231 -1.8725 148.526 1.54697C148.006 1.71689 147.568 2.0748 147.299 2.55051C141.5 3.33105 137.188 10.9133 136.779 16.8974C135.999 29.0885 150.533 35.1469 160.792 34.8496L160.792 34.8496ZM147.41 5.11514C147.753 5.4296 148.21 5.59067 148.674 5.56119C155.142 5.56119 163.543 4.22311 168.598 9.64966C173.654 15.0762 170.643 24.8142 164.695 28.2337C159.236 30.4182 153.073 29.9516 148.005 26.97C144.204 25.3656 141.63 21.7571 141.351 17.6408C140.769 12.6346 143.148 7.74625 147.448 5.11514L147.41 5.11514ZM53.0812 72.3503C62.4848 74.2458 77.6865 68.3362 79.7679 57.8176C82.3325 44.846 63.2653 37.8584 53.4901 38.0071C53.0272 38.0071 52.5893 38.2175 52.3001 38.579C52.0109 38.9405 51.9017 39.4138 52.0034 39.8655C47.157 41.9897 43.1189 45.611 40.4813 50.1982C35.6866 59.899 43.3432 70.3804 53.0812 72.3503L53.0812 72.3503ZM47.4689 47.7079C49.8014 45.0709 52.7888 43.0964 56.129 41.984C61.1928 43.282 65.9701 45.5131 70.2158 48.5628C79.8423 55.9964 70.7361 64.5822 62.7822 67.1468C55.8317 69.3768 46.7255 67.407 44.1981 59.7132C42.8578 55.4159 44.1341 50.7314 47.4689 47.7079L47.4689 47.7079ZM20.115 129.808C18.2565 129.808 17.6247 132.633 19.5574 133.116C26.6566 134.9 34.8707 136.61 35.7627 145.346C36.7291 154.973 25.876 167.649 15.5061 164.378C7.92628 162.322 3.33975 154.627 5.1362 146.981C7.55022 140.334 14.2553 136.255 21.2672 137.168C21.5333 137.167 21.7486 136.951 21.7486 136.685C21.7486 136.418 21.5333 136.203 21.2672 136.202C16.9737 134.558 12.1747 134.886 8.14453 137.098C4.11435 139.31 1.26077 143.183 0.341522 147.688C-2.00006 158.839 8.07251 169.544 19.1486 169.99C29.5928 170.548 39.6282 158.207 40.6689 148.58C42.0813 135.83 31.6371 129.845 20.115 129.808L20.115 129.808ZM147.522 271.375L147.522 271.375C141.351 274.274 137.597 283.38 137.374 289.959C136.928 302.262 152.986 303.005 161.498 299.994C171.683 296.278 177.854 285.648 172.65 275.426C170.39 270.919 166.101 267.772 161.123 266.969C156.144 266.166 151.084 267.806 147.522 271.375L147.522 271.375ZM160.346 294.642C156.629 296.166 148.377 297.801 144.994 294.902C143.098 292.457 142.304 289.333 142.801 286.279C143.255 284.152 143.98 282.091 144.957 280.147C145.835 278.048 147.183 276.179 148.897 274.683C149.388 274.786 149.898 274.72 150.347 274.497C156.008 270.924 163.491 272.583 167.111 278.214C171.051 284.867 167.074 291.817 160.346 294.642L160.346 294.642ZM254.191 229.116C247.418 226.763 239.894 228.63 235.006 233.876C230.118 239.123 228.787 246.76 231.613 253.35C234.438 259.941 240.888 264.242 248.058 264.318C259.21 265.062 271.328 257.181 270.361 244.952C269.451 236.486 262.674 229.85 254.191 229.117L254.191 229.116ZM263.484 249.859C260.734 257.702 250.028 260.044 242.966 257.293C239.701 255.75 237.24 252.899 236.192 249.443C235.144 245.987 235.606 242.25 237.464 239.153C239.288 236.111 242.113 233.798 245.456 232.611C245.729 232.981 246.124 233.244 246.571 233.354C255.009 235.027 267.648 238.224 263.484 249.859L263.484 249.859ZM307.189 141.814C301.874 132.577 290.526 128.725 280.688 132.819C280.024 133.149 279.641 133.863 279.733 134.599C279.825 135.335 280.372 135.933 281.097 136.09C275.261 138.655 271.879 147.576 272.325 153.598C272.789 159.174 275.647 164.275 280.159 167.583C284.672 170.89 290.396 172.081 295.852 170.845C301.749 169.19 306.527 164.861 308.755 159.155C310.983 153.449 310.403 147.028 307.189 141.814L307.189 141.814ZM297.451 164.117C293.814 165.926 289.57 166.059 285.827 164.48C282.085 162.902 279.217 159.769 277.975 155.902C275.93 149.695 278.272 135.384 288.084 137.317C288.382 137.429 288.715 137.279 288.827 136.982C288.94 136.684 288.791 136.352 288.493 136.239C293.524 136.822 298.114 139.392 301.242 143.375C303.778 146.537 304.817 150.643 304.089 154.631C303.362 158.618 300.94 162.093 297.451 164.154L297.451 164.117Z" id="ic_collab_work" fill="#000000" fill-rule="evenodd" stroke="none" />
</svg>