<?xml version="1.0" encoding="utf-8"?>
<svg width="245.47638px" height="286.11664px" viewBox="0 0 245.47638 286.11664" version="1.1" xmlns:xlink="http://www.w3.org/1999/xlink" xmlns="http://www.w3.org/2000/svg">
  <path d="M44.8611 272.474C17.2053 265.04 13.7483 242.74 14.0085 217.093C14.2316 196.651 15.7927 176.208 16.6849 155.841C18.3576 117.892 19.956 78.9028 12.5588 41.4373C12.2614 39.8763 9.73376 39.6904 9.62225 41.4373C8.09821 67.455 8.61859 93.8814 6.90869 120.048C5.16168 147.366 1.85333 174.536 0.477966 201.817C-1.15753 233.893 -1.15753 286.932 44.7866 282.881C51.2175 282.323 50.1766 273.923 44.8611 272.474L44.8611 272.474ZM237.087 216.126C246.193 166.024 249.167 108.636 239.503 58.9057C239.21 57.6874 238.068 56.8679 236.82 56.9797C235.573 57.0914 234.594 58.1007 234.523 59.3517C232.367 86.2985 233.779 113.543 232.776 140.564C231.846 165.652 229.765 190.629 228.539 215.681C228.198 216.215 227.959 216.807 227.832 217.428C225.082 227.165 222.815 265.746 212.742 269.834C208.059 271.804 195.905 269.834 190.887 269.834C181.298 269.834 171.746 269.834 162.156 269.834C129.857 270.28 91.0909 267.568 60.7619 279.684C59.9731 279.961 59.4453 280.706 59.4453 281.542C59.4453 282.378 59.9731 283.124 60.7619 283.401C81.6874 288.121 104.769 285.334 126.066 284.962C149.779 284.553 173.455 284.962 197.131 285.296C209.137 285.556 222.443 286.746 229.988 275.596C239.615 261.397 237.756 235.008 237.719 218.802C237.772 217.868 237.553 216.938 237.087 216.126L237.087 216.126ZM14.8615 32.2216C27.2384 9.36319 48.3128 8.35968 72.249 9.54904C92.7286 10.5526 113.134 11.965 133.725 12.7827C153.015 13.526 172.231 13.5632 191.522 12.5596C205.534 11.8535 220.587 11.8163 227.389 26.4605C230.734 33.6711 229.693 43.0004 230.659 50.6941C231.105 52.5316 232.714 53.8515 234.603 53.9291C236.493 54.0067 238.204 52.8233 238.799 51.0286C242.516 33.9684 238.539 12.5225 221.07 4.82867C209.585 -0.226196 196.242 2.00394 184.199 2.71014C168.564 3.57739 152.904 3.87473 137.219 3.60217C107.745 3.08179 76.4491 -2.34476 47.1606 1.18622C30.6208 3.1933 11.442 12.3366 11.851 31.5154C11.8694 32.2419 12.376 32.8645 13.0836 33.0305C13.7913 33.1965 14.5217 32.8641 14.8615 32.2216L14.8615 32.2216ZM51.9163 159.703C72.9906 164.981 95.4774 163.829 117.072 164.126C137.105 164.387 162.937 168.513 181.744 161.153C185.209 160.449 187.699 157.403 187.699 153.867C187.699 150.331 185.209 147.285 181.744 146.581C163.16 140.411 138.629 145.578 119.116 146.804C97.0754 148.217 73.6224 148.217 52.3994 154.759C50.1321 155.391 49.1287 158.997 51.9163 159.703L51.9163 159.703ZM125.1 204.636C144.205 204.933 167.212 209.319 184.829 200.659C186.525 199.716 187.604 197.953 187.672 196.014C187.741 194.075 186.789 192.241 185.164 191.181C167.212 182.075 144.279 186.535 124.803 187.464C101.276 188.728 75.5552 189.025 52.9198 195.864C51.3396 195.926 50.1086 197.257 50.1702 198.837C50.2318 200.418 51.5625 201.649 53.1429 201.588C76.3358 206.011 101.461 204.227 125.1 204.636L125.1 204.636ZM149.26 227.344C136.734 228.422 123.054 228.496 111.68 234.22C110.836 234.694 110.35 235.619 110.438 236.582C110.527 237.546 111.173 238.367 112.089 238.68C122.869 243.289 135.73 242.397 147.29 242.657C160.672 242.917 175.913 245.073 188.477 239.832C191.216 238.913 193.028 236.305 192.934 233.417C192.839 230.529 190.861 228.045 188.068 227.306C175.801 223.255 161.973 226.228 149.26 227.344L149.26 227.344ZM45.7098 118.078L47.9027 116.665C58.1052 128.837 74.8481 133.298 89.754 127.816C113.021 120.382 127.628 94.3646 119.489 70.6885C112.055 48.8708 82.3204 33.8549 63.7363 51.0266C60.846 52.5691 58.1189 54.3997 55.5965 56.4903C45.4 65.0883 39.4785 77.7192 39.3912 91.0566C39.1479 99.2737 41.4595 107.364 46.0071 114.212L44.0744 115.699C42.7735 116.591 44.2603 118.97 45.7098 118.078L45.7098 118.078ZM68.0108 119.119C82.209 109.195 97.4108 99.754 110.122 88.2318C109.836 91.3896 109.11 94.4921 107.967 97.4495C107.682 97.4946 107.407 97.5823 107.149 97.7097C96.475 103.882 86.5048 111.197 77.4143 119.527C77.2205 119.711 77.0573 119.924 76.9311 120.159C73.9197 120.266 70.9102 119.902 68.0108 119.081L68.0108 119.119ZM88.2672 117.52C92.5787 114.324 96.9645 111.239 101.35 108.154C97.7815 112.191 93.3647 115.389 88.4159 117.52L88.2672 117.52ZM110.122 82.3964C92.9876 90.6849 77.7115 104.697 63.2903 117.297C60.3879 115.873 57.7683 113.934 55.5593 111.573C74.0449 99.7198 91.28 86.0213 107 70.6884C107.578 71.8929 108.074 73.1346 108.487 74.4052C109.404 76.9739 110.003 79.6451 110.271 82.3593L110.122 82.3964ZM48.2745 94.9593C47.9962 92.3898 47.9962 89.7978 48.2745 87.2283C55.4479 81.7275 61.9152 75.3345 69.2373 69.9451C75.4444 65.4478 81.7258 61.3221 87.7471 56.6761C91.4979 57.2979 95.0867 58.6626 98.3028 60.6903C81.1311 72.4726 61.6179 82.062 48.9807 98.9363C48.6599 97.6272 48.424 96.2988 48.2745 94.9593L48.2745 94.9593ZM63.1417 58.9433C63.8351 59.1331 64.5668 59.1331 65.2603 58.9433C69.2788 57.5875 73.4476 56.7263 77.6744 56.3787C67.3782 62.6787 58.0824 70.4836 50.0957 79.5344C52.3981 71.5878 56.8939 64.4512 63.0674 58.9433L63.1417 58.9433ZM50.1329 102.467C64.6656 85.8903 85.5169 77.6761 102.168 63.8495C102.971 64.6514 103.716 65.5083 104.398 66.4142C87.2638 80.3522 70.6125 94.7734 53.1435 108.488C51.871 106.616 50.8348 104.594 50.0585 102.467L50.1329 102.467Z" id="ic_document" fill="#000000" fill-rule="evenodd" stroke="none" />
</svg>