<?xml version="1.0" encoding="utf-8"?>
<svg width="267px" height="242px" viewBox="0 0 267 242" version="1.1" xmlns:xlink="http://www.w3.org/1999/xlink" xmlns="http://www.w3.org/2000/svg">
  <defs>
    <path d="M314 -26L314 -26L314 216L47 216L47 -26L314 -26Z" id="path_1" />
    <clipPath id="clip_1">
      <use xlink:href="#path_1" clip-rule="evenodd" fill-rule="evenodd" />
    </clipPath>
  </defs>
  <g id="ic_like" clip-path="url(#clip_1)">
    <path d="M314 -26L314 -26L314 216L47 216L47 -26L314 -26Z" id="ic_like" fill="none" stroke="none" />
    <path d="M46.1022 100.47C46.1022 100.47 46.1022 100.47 46.1022 100.47C56.1714 100.224 66.4861 99.4874 76.5552 98.2595C74.3449 105.873 73.3626 113.732 73.117 121.59C72.6258 121.345 72.1347 121.099 71.6435 121.099C64.0302 121.099 54.6979 120.854 47.3302 123.555C45.6111 124.292 45.8567 126.993 47.5758 127.485C54.9434 129.695 64.2758 128.713 71.6435 128.221C72.1347 128.221 72.6258 127.976 73.117 127.73C73.117 128.221 73.117 128.713 73.117 128.958C73.117 130.923 73.3626 132.888 73.6082 134.852C70.4155 134.852 67.2229 135.098 64.2758 135.098C58.6273 135.343 52.7331 134.852 47.0846 136.326C45.1199 136.817 44.3831 140.01 46.839 140.501C52.4876 141.974 58.3817 141.729 64.0302 141.974C67.4685 141.974 71.1523 142.22 74.8361 142.22C75.5729 146.886 76.5552 151.798 77.7832 156.464C73.117 154.991 68.4508 154.499 63.539 154.254C58.3817 154.008 52.7331 153.517 47.8214 155.482C46.3478 155.973 46.3478 158.429 47.8214 158.92C52.7331 160.639 58.3817 160.148 63.539 160.639C68.6964 161.13 73.8538 162.113 79.2567 162.113C79.7479 164.077 80.2391 166.042 80.7303 168.007C70.9067 167.516 61.0832 167.761 51.5052 168.743C50.7684 168.743 50.2773 168.743 49.7861 168.989C48.8037 169.48 48.3125 170.463 48.3125 171.691C48.3125 172.673 48.5581 173.655 49.7861 174.392C50.2773 174.638 50.7684 174.883 51.5052 174.883C61.5743 176.111 72.3802 176.357 82.4494 175.62C83.4317 180.041 84.1685 184.461 84.9053 189.127C85.3964 193.057 91.5362 192.32 91.7817 188.391C92.0273 182.988 91.2906 177.83 90.3082 172.673C90.5538 171.445 90.3082 170.463 89.5714 169.48C87.3611 160.148 84.1685 150.815 82.4494 141.238C85.1508 140.01 84.9053 136.08 81.7126 135.343C81.7126 135.343 81.7126 135.343 81.7126 135.343C80.2391 123.555 80.7303 112.504 82.4494 101.207C85.3964 102.926 88.0979 101.207 91.2906 100.715C94.7288 100.224 98.1671 100.961 101.36 99.733C99.1494 116.924 93.0097 134.361 92.5185 151.552C92.0273 176.111 114.621 186.426 135.005 191.583C136.479 192.074 137.461 189.618 135.988 189.127C127.147 185.198 117.569 181.023 110.201 174.146C98.4126 163.586 100.623 149.833 103.816 135.589C108.973 112.504 112.411 88.9271 111.429 65.3506C111.183 55.0359 109.955 44.9668 107.991 34.8976C107.254 31.9506 106.763 29.0035 105.78 26.0564C104.798 23.1094 104.061 20.1623 103.324 16.9696C106.517 16.4785 109.71 15.9873 112.902 15.9873C131.076 16.2329 133.777 38.3359 136.479 52.58C138.689 64.1227 139.18 75.9109 140.654 87.6992C140.654 88.436 140.899 88.9271 141.391 89.4183C140.163 90.1551 139.18 91.1374 138.444 92.3654C137.952 93.1021 138.198 94.0845 138.935 94.5757C139.18 94.8213 139.426 94.8213 139.426 95.0669C139.672 95.3124 140.163 95.0669 140.408 95.0669C143.601 92.1198 151.705 91.6286 155.635 90.8919C161.283 89.9095 166.932 89.1727 172.826 88.436C173.808 88.1904 174.791 87.6992 175.036 86.9624C176.019 94.8213 181.667 102.68 187.07 107.592C178.229 112.749 170.125 122.327 173.563 131.905C176.264 139.273 184.614 141.483 191.491 143.202C205.735 146.395 220.716 147.132 235.206 145.167C236.925 144.921 238.644 144.676 240.363 144.185C240.363 145.658 241.345 146.886 242.819 147.623C244.538 151.552 246.011 155.482 247.731 159.411C246.011 161.13 244.292 163.095 242.819 164.814C239.135 167.516 233.732 168.498 229.311 169.235C222.189 170.463 215.067 170.463 207.945 169.971C201.069 169.48 194.192 168.252 187.561 166.288C182.158 164.814 180.93 165.305 178.966 159.657C176.755 153.271 180.439 146.149 189.035 145.167C189.28 145.167 189.526 144.676 189.28 144.43C182.158 137.799 171.844 149.588 170.125 156.71C168.405 163.095 171.598 167.761 176.264 170.954C165.458 165.06 150.723 168.498 144.092 179.795C135.251 195.021 162.266 200.424 173.072 203.863C189.28 208.774 214.085 216.388 226.364 199.688C231.767 192.32 230.048 184.952 225.382 179.304C236.925 178.813 248.467 175.866 255.344 167.516C263.203 157.692 260.992 144.43 250.432 139.764C261.484 134.361 269.588 124.537 260.501 111.276C260.01 110.539 259.519 109.802 258.782 109.311C266.641 98.5051 269.097 87.208 259.028 76.1565C249.45 65.3506 234.223 61.6668 220.47 62.4036C209.664 62.8947 198.367 65.8418 188.053 69.5256C183.386 71.2448 179.211 72.7183 176.755 77.3845C175.773 79.1036 175.282 80.8227 175.282 82.7874C174.791 82.2962 174.054 81.8051 173.072 81.8051C165.95 82.2962 159.073 83.5242 152.197 85.4889C150.477 85.9801 148.513 86.4713 146.548 86.9624C148.513 71.4903 146.057 55.5271 142.127 40.5462C139.672 30.9682 137.216 17.952 128.62 11.8123C121.744 7.1461 107.745 5.91815 100.377 9.35639C97.4303 10.8299 96.6935 12.0579 95.7112 15.0049C92.0274 24.8285 100.869 38.5815 102.096 49.8785C104.061 66.333 103.816 82.7874 101.851 98.9963C101.851 99.2419 101.851 99.2419 101.851 99.4875C99.6406 96.786 95.9568 96.0492 92.5185 96.0492C90.5538 96.0492 87.8523 95.8036 85.642 96.5404C86.87 94.8213 86.3788 92.3654 84.9053 91.1374C85.3965 88.436 86.1332 85.7345 86.6244 83.033C86.6244 82.7874 86.6244 82.2962 86.3788 82.0507C86.3788 81.0683 85.6421 80.0859 84.1685 80.0859C78.0288 80.0859 72.3803 81.8051 66.4861 83.033C63.7847 83.5242 60.8376 84.0154 58.1361 84.5065C57.6449 84.5065 52.9788 85.4889 50.7685 86.2257C50.7685 86.2257 50.7685 85.9801 50.5229 85.9801C50.5229 85.9801 50.2773 85.7345 50.2773 85.7345C50.0317 85.4889 49.7861 85.4889 49.2949 85.4889C49.0493 85.4889 49.0493 85.7345 48.8037 85.7345C48.3126 85.9801 48.067 86.4713 48.3126 86.9624C49.7861 90.4007 56.9082 89.4183 59.8552 89.4183C67.2229 89.6639 75.3273 89.4183 82.2038 86.4713C81.467 87.6992 80.7303 89.1727 79.9935 90.6463C68.6964 91.383 57.1538 92.611 46.1023 94.3301C41.4361 94.3301 42.4184 100.224 46.1022 100.47L46.1022 100.47ZM204.507 200.916C195.42 201.652 185.842 198.46 177.247 196.004C170.861 194.039 160.792 192.566 155.389 188.636C147.53 182.988 154.407 176.848 161.038 174.146C167.669 171.445 174.545 173.164 180.93 175.62C181.913 176.111 182.895 174.883 182.158 174.146C181.176 173.164 179.948 172.182 178.72 171.199C186.333 175.374 196.894 177.093 203.033 178.076C205.735 178.567 208.436 178.813 211.383 179.058C214.085 180.532 217.032 182.496 218.26 184.707C224.154 195.758 211.875 200.179 204.507 200.916L204.507 200.916ZM252.888 125.765C252.397 130.432 250.432 133.133 246.503 133.87C239.872 137.063 231.276 137.308 223.908 137.799C218.014 138.045 211.875 137.799 205.98 137.063C200.578 136.326 188.544 135.835 184.123 131.905C174.791 123.555 192.473 112.258 198.367 107.838C198.858 107.346 199.35 106.855 199.35 106.364C211.629 103.908 227.101 105.873 239.381 107.346C245.766 108.083 248.467 109.065 252.642 114.223C257.8 117.661 257.8 121.345 252.888 125.765L252.888 125.765ZM189.28 76.6477C196.402 72.4726 208.436 71.2447 216.541 70.5079C226.364 69.5256 236.925 70.7535 245.52 75.9109C257.554 83.2786 258.536 93.1021 252.151 104.399C247.976 102.189 242.819 101.207 237.907 101.207C225.136 100.961 211.138 100.224 198.858 103.908C198.367 103.417 197.385 102.926 196.402 103.171C194.192 103.662 191.736 104.645 189.28 105.873C184.369 96.7859 176.51 84.2609 189.28 76.6477L189.28 76.6477ZM71.1529 113.491C73.6088 113.491 73.6088 110.052 71.1529 110.298C66.4867 110.544 62.0662 110.789 57.6455 110.789C56.4176 110.789 56.172 112.754 57.4 112.754C62.0662 113 66.4867 113.245 71.1529 113.491L71.1529 113.491Z" id="Group" fill="#000000" fill-rule="evenodd" stroke="none" />
  </g>
</svg>