<?xml version="1.0" encoding="utf-8"?>
<svg width="285.5658px" height="168.46667px" viewBox="0 0 285.5658 168.46667" version="1.1" xmlns:xlink="http://www.w3.org/1999/xlink" xmlns="http://www.w3.org/2000/svg">
  <path d="M171.384 39.3448C168.336 17.4901 146.593 -3.54706 123.586 0.504272C119.869 1.17328 117.416 6.85999 121.876 8.75555C135.479 14.5538 150.495 19.906 156.033 35.1077C161.385 49.0167 155.699 64.7446 142.69 72.0156C125.184 81.5678 104.37 73.428 101.805 52.6139C101.729 51.5746 101.729 50.5311 101.805 49.4918L101.991 49.4918C102.873 49.1542 103.511 48.377 103.671 47.4465C103.831 46.5162 103.489 45.5702 102.771 44.9572L102.288 44.5856C104.667 31.0192 114.963 13.1414 128.603 14.145C129.681 14.145 130.239 12.5095 129.198 12.0264C112.807 4.59271 95.7466 28.2316 92.0298 42.5042L90.952 42.5042C88.8613 42.5453 86.7808 42.807 84.7449 43.2847C83.0723 23.7343 64.2653 11.6918 44.9751 8.34668C23.046 -2.06036 2.71503 14.1821 0.373474 36.9661C-2.30267 62.2032 9.3681 86.3253 36.538 89.7076C60.214 92.6439 82.0688 73.3908 84.8564 50.0864C84.8564 49.5661 84.8564 49.0457 84.8564 48.5626C86.9006 49.0085 89.0936 49.1572 90.9148 49.3802L90.9148 49.3802C90.2261 60.6139 94.619 71.563 102.881 79.2055C111.143 86.848 122.401 90.376 133.547 88.8156C145.176 87.3863 155.74 81.3364 162.859 72.0296C169.977 62.7228 173.049 50.9427 171.384 39.3449L171.384 39.3448ZM42.8937 76.0297C8.58759 78.743 3.23535 28.6776 25.276 14.5909C25.8658 15.3523 26.6879 15.9004 27.6176 16.152C40.2919 19.8688 58.9131 23.7714 67.0901 35.3307C78.4635 51.5359 59.6936 74.6917 42.8937 76.0297L42.8937 76.0297ZM235.007 3.47754C233.026 3.12262 231.078 4.24951 230.397 6.14404C229.717 8.03864 230.503 10.1478 232.257 11.135C241.586 15.7068 250.556 20.9752 259.092 26.8957C278.123 40.9094 266.192 68.7883 244.225 71.5018C229.358 73.2115 207.057 61.0566 206.463 44.9984C206.591 39.722 207.859 34.5357 210.179 29.7952C211.034 27.8994 225.938 9.16479 227.574 13.4024C227.629 13.5714 227.757 13.7066 227.922 13.7714C228.088 13.8362 228.273 13.8235 228.429 13.7369L229.544 13.1794C230.026 12.8748 230.309 12.3365 230.287 11.7668L230.287 10.3544C230.208 9.12549 229.177 8.1759 227.946 8.19843C211.331 7.7522 199.921 23.9592 197.133 39.5341C195.004 39.6755 192.882 39.9236 190.778 40.2775C185.877 40.7828 181.043 41.8046 176.356 43.3257C174.899 43.7982 173.934 45.1828 173.994 46.7139C174.055 48.2451 175.126 49.549 176.616 49.905C181.765 50.6083 186.973 50.7577 192.153 50.3509C193.677 50.3509 195.201 50.3509 196.687 50.0536C199.177 70.7212 225.604 84.1029 244.671 83.5083C265.077 82.8391 286.077 61.5026 285.556 40.6492C284.738 18.495 253.331 5.41046 235.007 3.47754L235.007 3.47754ZM39.733 27.041L39.733 27.041C39.0322 26.1657 37.8032 25.9218 36.8213 26.4631C35.8395 27.0045 35.3898 28.1741 35.756 29.2339C36.9635 32.9855 38.429 36.6491 40.1419 40.1985C40.8852 41.7596 41.8516 42.9117 41.1454 44.2499C40.4393 45.588 38.5808 46.2941 37.9118 46.9259C34.195 50.2711 32.225 54.3595 34.9012 58.7083C35.9791 60.5295 38.618 59.6003 39.287 58.0764C40.7421 55.0398 42.8189 52.3426 45.3826 50.1594C47.2659 48.9391 48.5994 47.0323 49.0994 44.8445C48.9663 42.3444 48.0715 39.945 46.5349 37.9684C44.5139 34.1782 42.2416 30.5276 39.733 27.0409L39.733 27.041ZM139.674 42.6886L138.076 43.9152C134.118 46.16 130.881 49.4865 128.746 53.5046C128.105 54.9369 128.432 56.6177 129.564 57.7047L129.936 58.1135C130.557 58.683 131.434 58.881 132.24 58.6339C135.4 57.7789 136.589 53.8763 139.005 51.8321C141.422 49.7877 144.507 48.3383 145.957 45.7736C147.135 43.6855 146.77 41.0665 145.064 39.3807C142.238 35.7127 139.05 32.3381 135.548 29.3081C135.132 28.488 134.39 27.881 133.504 27.6356C132.603 27.3048 131.591 27.5879 130.992 28.3383C130.393 29.0888 130.342 30.1384 130.865 30.9436C132.544 33.6149 134.382 36.1841 136.366 38.6375C136.924 39.3437 139.637 41.9825 139.712 42.3542C140.381 42.2055 140.368 42.3169 139.674 42.6886L139.674 42.6886ZM227.051 65.1047C226.754 67.7068 230.062 68.0042 231.363 66.4059C234.225 62.6886 236.53 58.9714 239.615 55.4401C241.808 53.0612 246.715 50.868 247.421 47.5598C248.016 44.8833 245.711 42.7274 244.299 40.7944C241.585 37.0774 239.541 31.6501 235.898 28.8253C235.038 28.1669 233.83 28.2213 233.033 28.9543C232.235 29.6873 232.08 30.887 232.664 31.7989C234.04 34.0292 234.857 36.8542 236.047 39.2333C236.902 40.869 239.355 43.8054 240.433 45.9985C234.374 51.6858 228.203 55.626 227.051 65.1047L227.051 65.1047ZM36.2391 102.08C37.2456 102.439 38.2766 102.724 39.324 102.935C41.8886 103.418 43.0408 100.333 42.1116 98.475C41.8727 97.1132 40.9439 95.9733 39.6585 95.4642C38.4509 95.0798 37.1329 95.2827 36.0968 96.0124C35.0606 96.742 34.4255 97.9144 34.3806 99.1812C34.309 100.447 35.0585 101.617 36.2391 102.08L36.2391 102.08ZM63.7072 113.007C63.064 112.483 62.2144 112.287 61.4069 112.476C60.5993 112.665 59.9251 113.218 59.5815 113.973C59.5815 113.973 59.5815 114.196 59.5815 114.308C51.5509 112.935 43.3647 112.722 35.2736 113.676C29.2153 113.973 18.7339 112.635 14.4224 117.653C13.7534 118.471 14.7197 119.511 15.5746 119.4C17.1414 119.214 18.7172 119.114 20.295 119.102C19.205 125.812 18.658 132.599 18.6595 139.396C18.4738 147.499 16.541 157.571 21.0383 164.596C21.3676 165.144 21.9601 165.479 22.5994 165.479C23.2386 165.479 23.8312 165.144 24.1605 164.596C24.1605 164.299 24.3834 163.964 24.5321 163.667C25.0519 164.147 25.7742 164.342 26.4648 164.187L27.4684 164.187C27.7831 164.142 28.0596 163.954 28.2189 163.679C28.3782 163.404 28.403 163.071 28.2861 162.775C30.7764 167.384 45.4949 165.377 51.3674 166.046C55.8119 167.038 60.3439 167.585 64.8967 167.681C66.4562 167.593 67.8605 166.708 68.6135 165.34C72.1073 157.72 71.5126 146.756 70.9922 138.616C70.4719 130.476 70.3602 118.731 63.7072 113.007L63.7072 113.007ZM46.2753 157.088C39.3672 156.692 32.4376 157.255 25.6841 158.761C25.8702 153.581 25.5966 148.394 24.8665 143.262C24.3832 135.234 24.3089 127.019 23.0452 119.065C29.624 119.288 36.5372 120.441 42.7443 120.998C48.1802 121.851 53.6705 122.31 59.1724 122.373C59.6928 126.09 60.7707 129.547 61.2167 133.264C62.1087 140.214 63.5211 151.104 61.514 158.538C56.5336 158.501 50.9213 157.237 46.2753 157.088L46.2753 157.088ZM243.555 110.442C233.036 111.409 221.254 112.078 211.441 115.907C210.177 116.39 210.846 118.583 212.185 118.174L212.593 118.174C212.926 118.108 213.2 117.871 213.314 117.551C213.429 117.232 213.366 116.875 213.151 116.613C217.834 121.928 232.107 118.806 238.648 118.583C245.19 118.36 251.843 119.401 258.459 119.55C257.008 125.385 256.136 131.349 255.857 137.355C255.08 143.306 254.819 149.313 255.077 155.309C243.703 154.602 231.066 159.026 220.027 160.067C219.757 156.727 219.757 153.37 220.027 150.03C220.027 146.313 220.027 142.596 220.027 138.879C220.209 132.732 219.609 126.587 218.243 120.59C218.116 120.12 217.689 119.793 217.202 119.793C216.715 119.793 216.288 120.12 216.162 120.59C213.411 129.251 213.746 139.176 213.337 148.023C213.114 152.707 210.438 163.115 215.121 166.832C219.804 170.549 232.255 166.832 238.016 166.349C247.086 165.754 257.418 167.166 265.633 162.929C266.573 162.374 267.15 161.364 267.15 160.271C267.15 159.179 266.573 158.168 265.633 157.613C265.075 157.353 264.48 157.167 263.923 156.944C264.666 150.699 264.183 144.269 264.331 138.024C264.823 131.842 264.972 125.637 264.777 119.438C265.901 119.325 267.018 119.151 268.122 118.918C269.234 118.772 270.158 117.99 270.486 116.917C270.814 115.845 270.486 114.68 269.647 113.937C262.25 108.361 252.066 109.662 243.555 110.442L243.555 110.442ZM75.71 135.827C74.3112 137.088 74.179 139.236 75.4126 140.659C76.978 142.664 79.4601 143.73 81.9921 143.483C82.5565 143.596 83.1376 143.596 83.702 143.483C85.015 143.192 85.9817 142.074 86.0809 140.733C86.0154 138.311 84.5935 136.131 82.4028 135.095C80.2122 134.058 77.6247 134.341 75.71 135.827L75.71 135.827ZM100.314 131.813C98.8445 132.959 98.0297 134.753 98.1336 136.614C98.2374 138.475 99.2466 140.167 100.834 141.143C101.855 141.775 103.063 142.038 104.254 141.887C105.958 141.757 107.526 140.909 108.568 139.555C109.611 138.201 110.028 136.467 109.718 134.787C109.174 132.877 107.708 131.369 105.816 130.77C103.923 130.172 101.856 130.564 100.314 131.813L100.314 131.813ZM125.773 133.486C125.153 133.345 124.502 133.48 123.989 133.857C122.578 134.837 121.772 136.474 121.855 138.189C121.938 139.904 122.899 141.455 124.398 142.293C126.065 143.219 128.107 143.151 129.709 142.117C131.311 141.083 132.213 139.251 132.055 137.35C131.922 135.906 131.117 134.608 129.881 133.847C128.645 133.087 127.123 132.953 125.773 133.486L125.773 133.486ZM148.779 131.962C145.816 133.209 143.679 135.862 143.092 139.023C142.838 140.461 143.448 141.915 144.654 142.74C145.096 143.018 145.57 143.243 146.066 143.408C146.869 144.168 147.993 144.488 149.077 144.263C152.895 143.003 155.12 139.036 154.206 135.121C154.042 133.904 153.326 132.832 152.265 132.214C151.204 131.596 149.918 131.504 148.779 131.962L148.779 131.962ZM171.302 135.716L171.302 135.307C169.813 133.348 167.019 132.966 165.058 134.452C162.838 135.887 161.975 138.712 163.013 141.143C163.524 142.42 164.591 143.393 165.91 143.784C167.228 144.176 168.653 143.942 169.778 143.15C168.564 143.398 168.675 143.398 170.113 143.15L171.228 142.555L170.707 142.555C171.652 141.89 172.314 140.896 172.566 139.767C172.884 138.289 172.405 136.751 171.302 135.716L171.302 135.716ZM166.991 142.816C167.201 142.951 167.425 143.063 167.66 143.15L167.139 143.15L166.991 142.816ZM192.674 136.831C192.6 135.538 191.93 134.352 190.859 133.624C189.788 132.896 188.439 132.707 187.209 133.114C186.408 133.398 185.664 133.826 185.016 134.378C183.764 134.693 182.764 135.636 182.377 136.868C181.988 138.241 182.474 139.713 183.604 140.585C183.703 140.766 183.815 140.94 183.938 141.106C184.785 142.306 186.201 142.972 187.665 142.858C189.13 142.743 190.426 141.866 191.075 140.548L191.075 140.548C191.656 140.138 192.108 139.571 192.376 138.912C192.982 138.391 193.109 137.501 192.674 136.831L192.674 136.831ZM207.354 135.269C205.219 134.356 202.767 134.595 200.849 135.901C199.721 136.745 199.112 138.114 199.241 139.516C199.371 140.918 200.219 142.153 201.481 142.777C203.24 143.695 205.235 144.058 207.205 143.818C209.356 143.574 210.993 141.773 211.03 139.609C211.068 137.445 209.495 135.588 207.354 135.269L207.354 135.269ZM245.04 96.5423C244.662 94.4587 242.717 93.0371 240.617 93.3087C239.633 93.426 238.703 93.8262 237.941 94.4609C237.346 94.596 236.819 94.9386 236.454 95.4272C235.87 96.3541 235.443 97.3715 235.191 98.4379C234.705 99.9578 235.243 101.618 236.529 102.564C237.351 103.083 238.306 103.354 239.279 103.344C240.211 103.714 241.224 103.83 242.216 103.679C243.365 103.503 244.365 102.799 244.919 101.778C245.474 100.756 245.519 99.5343 245.04 98.475C245.168 97.837 245.168 97.1802 245.04 96.5423L245.04 96.5423ZM240.543 98.1776L239.948 98.4378L239.948 96.8396L240.506 97.2484L240.543 98.1776Z" id="ic_process" fill="#000000" fill-rule="evenodd" stroke="none" />
</svg>