<?xml version="1.0" encoding="utf-8"?>
<svg width="335.4922px" height="277.83875px" viewBox="0 0 335.4922 277.83875" version="1.1" xmlns:xlink="http://www.w3.org/1999/xlink" xmlns="http://www.w3.org/2000/svg">
  <path d="M334.729 211.134C327.295 204.741 316.145 203.7 307.298 199.797C296.512 194.969 286.719 188.176 278.419 179.764C305.329 149.435 318.003 119.997 310.755 79.1126C307.67 61.6808 304.028 42.4277 292.58 28.3038C282.991 16.4844 268.495 11.5782 254.557 6.93219C213.895 -6.55981 171.858 -0.501404 137.775 26.3711C123.746 37.0699 112.816 51.3093 106.108 67.6277C97.4847 89.594 101.499 111.337 106.963 133.564C84.079 132.192 61.7068 140.705 45.5238 156.943C32.1006 171.047 25.1522 190.101 26.345 209.535C27.5715 224.774 32.2548 242.541 47.5309 248.488C48.8689 249.008 50.0955 246.889 48.9432 245.997C36.8636 236.705 33.407 215.185 34.4105 201.061C35.6381 185.698 42.4 171.302 53.4406 160.548C77.451 137.243 133.686 132.151 151.155 166.643C168.29 200.466 156.173 245.477 118.671 257.111C86.0369 267.257 49.7238 269.227 15.6034 266.402C17.0901 265.548 18.5397 264.693 19.952 263.987C26.6794 260.493 35.0424 257.817 40.5803 252.836C42.2157 251.312 41.3608 247.93 38.7592 248.45C31.5114 249.826 24.7467 254.806 18.391 258.411C12.0353 262.017 4.0813 265.102 0.178711 271.011C-0.0283203 271.279 -0.0579834 271.643 0.102783 271.941C0.263672 272.238 0.584839 272.413 0.921997 272.387C4.27441 272.077 7.52661 271.077 10.4742 269.45C10.3051 270.101 10.4021 270.792 10.7439 271.371C11.0857 271.95 11.644 272.369 12.2954 272.535C34.8193 279.709 57.6777 278.556 80.8334 275.211C100.83 272.312 123.8 269.971 141.12 258.672C156.54 248.479 166.198 231.564 167.138 213.103C167.323 210.13 167.435 207.045 167.435 203.886C210.104 234.549 277.75 227.971 325.845 217.415C326.353 217.278 326.775 216.925 326.998 216.449C329.101 216.545 331.207 216.319 333.242 215.78C335.063 215.073 336.401 212.546 334.729 211.134L334.729 211.134ZM250.431 215.408C221.403 214.553 196.277 206.376 168.327 200.355C168.025 200.258 167.7 200.258 167.398 200.355C166.952 181.474 162.306 160.808 148.033 148.803C136.979 139.842 123.397 134.565 109.193 133.713L109.193 133.713C110.345 117.247 106.108 101.228 109.193 84.8365C113.088 65.9319 123.267 48.902 138.072 36.5181C163.83 14.2172 199.474 2.65796 233.185 9.42255C252.438 13.1393 277.192 20.2013 288.714 36.9641C296.148 47.78 298.936 61.3092 301.389 74.1322C304.845 92.0844 307.15 110.111 301.76 128.063C296.371 146.015 283.882 161.7 273.884 177.199C273.795 177.353 273.72 177.515 273.661 177.682C272.904 178.028 272.331 178.682 272.089 179.478C271.847 180.275 271.96 181.137 272.398 181.845C279.472 192.346 289.087 200.886 300.348 206.673C305.32 209.473 310.502 211.884 315.847 213.884C294.067 214.367 272.36 216.04 250.431 215.408L250.431 215.408ZM93.7279 157.828L93.7279 157.828C93.1516 158.22 92.6898 158.759 92.3899 159.389L92.3899 159.389C84.5846 173.514 80.5332 189.795 75.2554 205.073C69.9775 206.857 65.22 209.348 64.4022 213.065C64.1421 214.143 65.3314 215.481 66.4836 214.96C68.3641 214.135 70.3177 213.488 72.3191 213.028C68.8253 221.874 65.1827 230.535 66.1863 240.163C66.5209 243.471 71.0182 244.215 73.1367 242.282C81.7598 234.364 84.5846 221.912 88.004 210.797C91.4235 210.463 94.7314 210.165 97.6677 209.682C99.8606 209.31 102.128 209.087 104.432 208.864C107.777 221.614 110.193 235.442 117.627 245.739C120.117 249.196 124.689 246.631 125.432 243.285C128.034 231.539 123.239 218.752 118.891 207.415C122.164 206.974 125.38 206.177 128.48 205.036C130.037 204.574 131.174 203.234 131.376 201.622C131.577 200.01 130.805 198.432 129.409 197.601C124.656 195.3 119.331 194.447 114.096 195.148C109.45 183.773 104.395 172.845 100.827 161.024C100.79 160.334 100.599 159.661 100.27 159.054L99.8978 157.828C99.7864 154.891 94.6571 154.333 93.7279 157.828L93.7279 157.828ZM91.2377 200.798C92.9845 195.594 94.7687 190.316 96.2925 185C97.7421 189.312 99.4518 193.587 100.976 197.824C97.5934 198.791 94.3226 199.869 91.2377 200.798L91.2377 200.798ZM221.507 128.032C219.542 124.301 217.78 120.467 216.229 116.546C216.15 116.181 215.881 115.886 215.525 115.772C215.169 115.658 214.779 115.743 214.503 115.995C214.227 116.247 214.105 116.627 214.185 116.992C214.899 121.687 216.792 126.125 219.686 129.89C218.153 131.381 216.895 133.13 215.969 135.057C215.969 135.318 215.969 135.726 216.415 135.689C221.805 134.648 226.376 128.255 229.461 123.906C233.067 119.136 235.672 113.687 237.118 107.885C237.378 106.77 235.817 105.729 235.185 106.807C232.901 104.297 229.618 102.935 226.228 103.09C227.864 99.4823 228.942 95.6468 229.424 91.715C229.424 90.7114 227.974 90.2653 227.677 91.2689C226.176 95.1731 225.079 99.2213 224.406 103.35C224.395 103.424 224.395 103.499 224.406 103.573C223.981 103.938 223.82 104.526 224 105.057C224.18 105.588 224.664 105.957 225.224 105.989C226.7 106.045 228.152 106.385 229.498 106.993C230.985 107.662 232.249 108.74 233.698 109.446L232.286 112.234C229.554 109.482 226.123 107.528 222.362 106.584C222.907 105.656 223.403 104.701 223.849 103.721C224.273 102.866 223.965 101.828 223.142 101.342C223.377 101.174 223.537 100.921 223.589 100.636C224.127 97.4621 224.486 94.2604 224.666 91.046C224.666 91.046 224.666 90.823 224.666 90.6743L225.484 90.8973C225.805 91.0265 226.17 90.9809 226.45 90.7769C226.73 90.5728 226.884 90.239 226.859 89.8937C226.265 86.6969 222.474 87.5891 220.057 87.8864C216.51 88.1266 213.004 88.7879 209.613 89.8565C209.464 88.9787 209.266 88.11 209.019 87.2545C209.21 86.9825 209.278 86.6429 209.208 86.3181C209.137 85.9932 208.934 85.7128 208.647 85.5446C208.647 85.3216 208.647 85.0986 208.647 84.8755C208.616 84.3184 208.616 83.7599 208.647 83.2028C208.813 83.0418 208.906 82.8206 208.906 82.5895C208.906 82.3584 208.813 82.1371 208.647 81.9761C208.708 80.8248 208.531 79.6731 208.127 78.5935C208.065 78.5001 207.96 78.4438 207.848 78.4438C207.736 78.4438 207.631 78.5001 207.569 78.5935C206.767 79.4944 206.273 80.627 206.157 81.8274C202.383 82.5974 198.757 83.9652 195.415 85.8792C195.36 84.7487 195.186 83.6273 194.895 82.5336C195.712 82.5336 196.53 82.1991 197.311 81.9389C197.672 81.835 197.978 81.5952 198.166 81.2698C198.397 81.6265 198.822 81.8067 199.239 81.7249C199.656 81.6431 199.982 81.3158 200.061 80.8981C200.275 78.0728 200.2 75.2331 199.838 72.423C199.795 69.7281 199.521 67.042 199.02 64.3938C198.934 63.9797 198.57 63.6829 198.147 63.6829C197.724 63.6829 197.359 63.9797 197.273 64.3938L197.273 64.3938C196.265 69.3156 196.405 74.4036 197.682 79.2625C197.452 79.0975 197.183 78.995 196.902 78.9651L194.969 78.9651C194.523 74.8391 194.04 70.7502 193.965 66.5869C193.965 66.5869 194.188 66.5869 194.226 66.2896C194.557 65.3746 194.794 64.4279 194.932 63.4645C198.649 63.4645 202.18 63.799 205.785 63.6875C205.983 63.9747 206.294 64.1639 206.64 64.2079L209.465 64.431C208.842 68.8841 208.867 73.4039 209.539 77.8499L208.424 78.1844C208.304 78.1844 208.194 78.2482 208.134 78.3517C208.074 78.4553 208.074 78.5828 208.134 78.6863C208.194 78.7898 208.304 78.8536 208.424 78.8536C208.907 78.8536 209.465 79.1509 209.948 79.2625C210.22 80.1577 210.569 81.0281 210.989 81.8645C211.159 82.2755 211.607 82.4977 212.037 82.3854C212.468 82.2731 212.75 81.8605 212.698 81.4184C212.698 80.898 212.698 80.3776 212.698 79.8944C214.284 80.1541 215.886 80.3032 217.493 80.3405C217.493 80.5262 217.493 80.7493 217.493 80.9352C217.79 81.9016 219.277 81.4184 219.165 80.4891L219.165 80.4891C224.323 80.2782 229.462 79.7444 234.553 78.8907C243.285 78.1669 251.831 75.9673 259.828 72.3857C260.594 72.089 260.999 71.2487 260.754 70.464C260.509 69.6794 259.697 69.2193 258.898 69.4119L258.452 69.4119C258.526 67.7952 258.426 66.1752 258.155 64.5796C258.123 62.2207 257.747 59.879 257.04 57.6285C256.735 56.9899 256.031 56.645 255.34 56.7957C254.649 56.9464 254.152 57.553 254.141 58.2604C254.141 60.4164 254.141 62.5352 254.141 64.6912C254.141 65.1372 254.141 65.5833 254.141 66.0665C253.645 64.1489 253.037 62.2623 252.319 60.4164C251.762 58.9296 249.643 60.0075 250.127 61.4572C251.056 64.3566 251.502 67.3303 252.282 70.2669L250.907 70.5643C250.907 66.5497 249.978 62.5352 249.42 58.595C249.42 58.595 249.42 58.595 249.42 58.3348C250.796 57.8144 252.171 57.294 253.509 56.6993C253.784 56.5596 253.918 56.2418 253.826 55.9474C253.734 55.653 253.443 55.468 253.137 55.5098C239.05 57.7029 225.261 59.2269 211.174 60.8253C211.174 60.8253 211.174 60.8253 210.914 60.8253L210.914 60.8253C211.174 59.7473 211.397 58.6694 211.583 57.5542C212.033 57.2282 212.147 56.6065 211.843 56.1417L212.104 54.692C212.834 54.7319 213.566 54.7319 214.297 54.692C215.226 54.692 215.151 53.4282 214.482 53.0564C213.849 52.7212 213.19 52.4354 212.512 52.2015C212.735 51.012 212.958 49.8225 213.219 48.4843C213.276 48.0288 213.125 47.5717 212.808 47.24C212.491 46.9082 212.041 46.7372 211.583 46.7744C207.49 46.8573 203.397 46.5711 199.355 45.9195C197.719 45.6593 195.081 44.5813 193.743 46.1797C192.405 47.778 192.702 52.7219 192.442 54.9894C191.927 58.1224 191.679 61.2933 191.698 64.4681C184.265 63.0928 176.348 63.2415 168.803 62.3122C168.238 62.2216 167.662 62.3913 167.236 62.7738C166.81 63.1562 166.58 63.7107 166.61 64.2823C166.123 70.0585 166.123 75.8654 166.61 81.6415C166.907 83.4629 167.353 84.355 169.137 85.0241C172.297 86.1393 178.243 84.2064 181.589 83.8346C184.934 83.4629 188.651 83.277 192.107 82.7567C191.856 84.7132 191.931 86.6979 192.33 88.6298C192.221 91.6011 193.229 94.5053 195.155 96.7704C195.461 96.9751 195.844 97.0268 196.193 96.9105C196.542 96.7941 196.817 96.5228 196.939 96.1757C196.959 95.8911 196.959 95.6053 196.939 95.3207L196.939 95.3207C197.173 96.3743 197.658 97.356 198.351 98.1829C198.946 98.8148 200.321 98.5918 200.135 97.5139C199.926 96.4435 199.468 95.4376 198.797 94.5773C200.098 94.1312 201.399 93.7595 202.7 93.3878C202.619 93.5907 202.619 93.8168 202.7 94.0197C202.89 95.1541 203.24 96.2555 203.741 97.2908C203.885 97.5256 204.159 97.6478 204.43 97.5984C204.702 97.5491 204.915 97.3384 204.967 97.0677C205.026 95.9175 204.913 94.765 204.633 93.6479C204.591 93.3593 204.41 93.1095 204.15 92.9789L207.16 92.1239L207.16 92.1239C207.579 92.6141 208.3 92.7103 208.833 92.3469C208.348 95.6161 208.894 98.9551 210.394 101.9C209.46 102.316 208.585 102.853 207.792 103.498C207.792 103.498 207.792 103.721 207.606 103.833C207.454 103.452 207.087 103.202 206.677 103.201C201.265 103.887 196.086 105.821 191.55 108.851C191.066 105.506 190.1 102.235 189.542 98.8892C189.542 97.774 187.758 98.1086 187.833 99.1866C187.875 102.81 188.516 106.402 189.728 109.818L189.728 109.818L189.059 110.078C188.569 108.666 187.96 107.298 187.238 105.989C186.23 104.032 185.114 102.133 183.893 100.302C184.934 99.5582 185.974 98.8148 187.052 98.1457C187.149 98.0411 187.169 97.8868 187.102 97.7612C187.035 97.6356 186.896 97.5661 186.755 97.5881C173.459 103.492 164.519 116.267 163.525 130.782C163.295 131 163.165 131.302 163.165 131.619C163.165 131.935 163.295 132.238 163.525 132.455C163.59 134.563 163.889 136.658 164.417 138.7C163.925 139.086 163.488 139.536 163.116 140.038C162.904 140.374 162.886 140.797 163.07 141.15C163.254 141.502 163.611 141.73 164.008 141.748C164.449 141.703 164.885 141.616 165.309 141.488C170.327 154.052 188.799 157.137 200.135 150.521C200.338 153.299 201.316 155.966 202.96 158.215C203.713 159.183 205.011 159.546 206.157 159.107C209.208 158.054 212.167 156.748 215.003 155.204C218.422 153.68 222.213 152.528 221.544 147.993C220.848 143.778 218.422 140.045 214.854 137.696C214.479 137.469 214.018 137.44 213.617 137.618C213.217 137.796 212.93 138.158 212.847 138.588C210.134 140.001 207.569 141.711 204.93 143.309C204.675 143.238 204.405 143.238 204.15 143.309L202.031 144.387L201.473 143.086C205.462 141.359 209.21 139.122 212.624 136.432C213.004 136.025 213.062 135.413 212.765 134.942C212.468 134.471 211.891 134.259 211.36 134.425C207.492 136.254 203.87 138.565 200.581 141.302L199.429 138.923C199.723 139.113 200.101 139.113 200.396 138.923C204.459 137.324 208.295 135.199 211.806 132.604C212.55 131.898 211.583 130.82 210.766 131.08C206.716 132.769 202.905 134.981 199.429 137.659C199.221 137.779 199.072 137.982 199.02 138.217L198.203 136.321C198.466 136.421 198.757 136.421 199.02 136.321C203.377 134.271 207.512 131.78 211.36 128.887C211.833 130.584 212.56 132.201 213.516 133.682C214.185 134.648 216.155 134.648 216.081 133.124C215.835 130.583 215.26 128.084 214.371 125.69C213.687 123.147 212.804 120.661 211.732 118.256C213.038 117.378 214.28 116.409 215.449 115.356C215.439 115.443 215.439 115.53 215.449 115.616C217.121 117.141 218.72 118.702 220.355 120.263C221.703 121.795 223.33 123.056 225.15 123.98L225.15 123.98C224.022 125.406 222.805 126.759 221.507 128.032L221.507 128.032ZM189.096 66.2896L191.512 65.8435C191.571 66.1744 191.776 66.4612 192.07 66.6241C191.899 70.6935 192.173 74.7694 192.888 78.7793L190.509 78.7793C190.404 74.5822 189.932 70.4028 189.096 66.2889L189.096 66.2896ZM188.427 79.0394L185.305 79.4111C185.305 75.2108 184.934 70.9731 184.562 66.7728L187.535 66.5126C187.449 70.7068 187.748 74.8999 188.427 79.0395L188.427 79.0394ZM212.327 77.1064C211.992 75.3594 211.62 73.5751 211.397 71.8281C211.063 69.3376 210.84 66.847 210.728 64.3937C212.252 64.3937 213.813 64.3937 215.374 64.3937L215.374 64.3937C215.523 68.3568 215.932 72.3056 216.601 76.2145C215.139 76.6357 213.714 76.9454 212.327 77.1436L212.327 77.1064ZM227.417 75.3967C227.045 71.6794 225.93 67.7393 225.335 64.0221C226.934 64.0221 228.532 63.6876 230.13 63.4274C230.13 63.4274 230.13 63.4274 230.13 63.6132C230.136 67.4226 230.359 71.2327 230.799 75.0208L227.417 75.3967ZM233.104 74.6531C232.846 70.9157 232.4 67.1938 231.766 63.5016C231.766 63.5016 231.766 63.5016 231.766 63.2786C235.337 62.692 238.873 61.9103 242.358 60.9368C242.984 63.248 243.198 65.6512 242.99 68.0366C242.99 69.5234 242.99 71.0103 243.362 72.46L238.753 73.5751C238.753 72.2741 238.344 71.0103 238.196 69.858C237.962 67.6854 237.9 65.4979 238.01 63.3157C238.01 62.2006 236.151 62.0891 236.04 63.3157C235.548 66.9617 235.737 70.6672 236.597 74.2442L233.104 74.6531ZM248.863 71.1591L246.075 71.791C245.999 69.8751 245.825 67.9645 245.555 66.0664C245.453 64.0295 244.948 62.0331 244.068 60.1933L247.488 59.1153C247.712 63.1635 248.158 67.1965 248.826 71.1959L248.863 71.1591ZM223.737 64.2079C223.718 68.0526 224.167 71.8848 225.075 75.6201L218.72 76.1405C218.125 72.4233 217.382 68.4088 216.861 64.543C219.128 64.5053 221.433 64.3938 223.737 64.2079L223.737 64.2079ZM194.672 61.9776C194.672 60.8996 194.858 59.8217 194.969 58.7065L194.969 57.9259C197.34 58.1644 199.722 58.2761 202.105 58.2604C204.345 58.4192 206.593 58.4192 208.833 58.2604C208.891 59.1339 209.003 60.0028 209.167 60.8625C204.307 60.5264 199.424 60.902 194.672 61.9776L194.672 61.9776ZM195.415 54.3203C195.334 52.6597 195.484 50.9958 195.861 49.3765C195.663 48.5092 196.121 48.41 197.236 49.0791L199.318 49.4137C200.705 49.6119 202.105 49.7606 203.518 49.8597C205.562 49.8597 207.643 50.0456 209.688 49.8597C209.688 50.3801 209.465 50.8633 209.39 51.3838C208.015 51.1235 206.64 50.9377 205.265 50.7518C202.191 49.9803 198.958 50.1355 195.973 51.1979C195.801 51.3159 195.699 51.5104 195.699 51.7183C195.699 51.9262 195.801 52.1208 195.973 52.2387C198.656 53.2424 201.51 53.7097 204.373 53.6141C205.971 53.6141 207.532 54.0601 209.13 54.2832C209.13 54.6177 209.13 54.9523 209.13 55.2868C206.927 55.1331 204.717 55.1331 202.514 55.2868C200.173 55.2868 197.794 55.2868 195.452 55.6213L195.415 54.3203ZM173.895 74.839C174.059 72.1404 174.059 69.4342 173.895 66.7356L176.496 66.7356C175.681 71.3712 175.681 76.1136 176.496 80.7493L173.969 81.0839C173.969 78.9651 173.932 76.8463 173.895 74.6903L173.895 74.839ZM170.178 81.4928C169.62 81.0839 170.178 77.1437 170.178 76.5118C170.178 73.1663 170.178 69.8209 170.178 66.4382L171.442 66.4382C170.986 69.2015 170.799 72.0026 170.884 74.8019C170.81 77.0479 170.897 79.2963 171.144 81.53C170.762 81.5933 170.37 81.528 170.029 81.3441L170.178 81.4928ZM178.726 80.5635C179.134 75.998 178.757 71.3966 177.611 66.9586C179.433 66.9586 181.328 66.9586 183.112 66.9586C182.826 71.1992 182.963 75.4579 183.521 79.6714L178.726 80.5635ZM231.208 114.018L231.394 114.018L230.39 115.877C229.131 114.772 227.715 113.857 226.19 113.163C224.109 112.085 221.99 111.119 219.835 110.227C220.281 109.632 220.727 109.074 221.135 108.479C224.406 110.301 227.64 112.829 231.208 114.018L231.208 114.018ZM215.486 92.161C215.508 91.6129 215.102 91.1414 214.557 91.083C215.858 90.7856 217.158 90.4883 218.459 90.3024C218.459 93.7222 217.865 97.142 218.013 100.562C217.221 100.519 216.427 100.519 215.635 100.562C215.761 97.7612 215.711 94.9554 215.486 92.161L215.486 92.161ZM223.18 90.1909C223.028 90.3135 222.924 90.4839 222.882 90.6742C222.235 93.8535 221.776 97.0682 221.507 100.302C221.452 100.483 221.452 100.677 221.507 100.859L219.574 100.636C220.086 97.1732 220.086 93.6538 219.574 90.1909C220.771 90.036 221.983 90.0361 223.18 90.1909L223.18 90.1909ZM196.753 92.9788C196.753 92.6443 196.753 92.3469 196.753 92.0123C199.764 90.7857 202.923 89.8936 205.934 88.7041C206.008 89.1063 206.107 89.5036 206.231 89.8936C202.919 90.3247 199.718 91.3711 196.79 92.9788L196.753 92.9788ZM205.599 84.2806C205.599 84.4665 205.599 84.6895 205.599 84.8754C205.599 85.0612 205.599 85.3214 205.599 85.5073C202.233 86.4164 199.016 87.8061 196.047 89.6333L195.452 87.4402C197.311 86.8083 199.169 86.1392 201.065 85.6188C202.96 85.0984 204.113 84.9497 205.599 84.2806L205.599 84.2806ZM210.543 91.715C211.633 91.5663 212.748 91.3804 213.888 91.1574C213.665 91.3094 213.528 91.5574 213.516 91.8265C213.026 94.8173 213.14 97.8759 213.85 100.822C213.196 100.955 212.55 101.129 211.918 101.342C211.918 98.1829 210.914 95.0233 210.58 91.715L210.543 91.715ZM199.392 128.403C199.197 128.091 198.912 127.844 198.574 127.697C198.574 126.768 198.24 125.801 198.017 124.872C198.361 125.198 198.899 125.198 199.243 124.872C202.142 122.27 205.599 120.523 208.647 118.144C208.801 118.329 208.99 118.481 209.204 118.59C209.229 119.702 209.353 120.809 209.576 121.898C207.091 122.742 204.767 123.999 202.7 125.616C201.451 126.357 200.354 127.328 199.466 128.478L199.392 128.403ZM190.955 144.127C190.802 141.887 190.802 139.639 190.955 137.399C190.955 137.399 190.955 137.399 190.955 137.399L192.367 136.804C191.717 140.704 192.114 144.706 193.519 148.402C192.776 148.625 192.033 148.848 191.289 148.997C191.268 147.368 191.156 145.743 190.955 144.127L190.955 144.127ZM183.224 134.202C179.247 133.236 179.098 129.258 180.139 126.024C180.139 125.616 180.436 125.207 180.622 124.798C180.986 124.571 181.165 124.137 181.068 123.72C181.943 121.812 183.041 120.016 184.339 118.367C184.673 117.958 185.454 116.992 186.383 115.988C187.164 115.988 188.056 115.579 187.796 114.613L187.796 114.613C188.242 114.167 188.725 113.758 189.171 113.349L189.394 113.349C190.62 112.382 191.735 111.825 192.442 112.308L192.442 112.308C192.228 114.61 192.455 116.931 193.111 119.148C193.559 122.508 194.485 125.788 195.861 128.887C193.635 131.065 190.939 132.706 187.981 133.682C186.403 134.267 184.703 134.446 183.038 134.202L183.224 134.202ZM207.532 110.747C207.532 111.453 207.532 112.122 207.532 112.828C203.703 114.621 199.98 116.631 196.381 118.85L196.381 118.367C196.158 117.512 195.972 116.509 195.824 115.542C199.852 114.437 203.723 112.826 207.346 110.747L207.532 110.747ZM198.017 123.868C197.757 122.865 197.459 121.861 197.162 120.858C200.879 119.11 204.596 117.475 208.089 115.393L208.089 115.988L208.089 115.988C204.127 117.61 200.655 120.236 198.017 123.608C198.017 123.608 197.868 123.794 197.831 123.906L198.017 123.868ZM192.813 111.081C192.813 111.081 192.813 111.081 192.813 110.858L192.813 110.858L192.813 111.081ZM207.495 105.208L207.495 105.208C207.584 105.536 207.797 105.816 208.089 105.989C207.814 106.758 207.627 107.556 207.532 108.368C203.204 109.517 199.097 111.376 195.378 113.869C195.112 112.642 194.477 111.527 193.557 110.673C198.306 109.315 202.912 107.497 207.309 105.245L207.495 105.208ZM182.443 101.491C183.112 103.573 183.93 105.506 184.822 107.513C185.376 108.924 186.06 110.281 186.866 111.565L186.643 111.565C185.004 108.929 183.139 106.442 181.068 104.13C180.639 103.729 179.973 103.729 179.544 104.13C180.25 103.127 181.217 102.309 182.258 101.491L182.443 101.491ZM179.21 104.353C179.049 104.616 179.049 104.946 179.21 105.208C180.694 108.138 182.344 110.98 184.153 113.721C183.596 114.241 183.038 114.761 182.518 115.319C180.399 113.461 178.021 111.825 175.976 109.892C175.196 109.149 173.895 110.338 174.564 111.193C176.335 113.519 178.424 115.583 180.771 117.326C180.288 117.921 179.842 118.553 179.433 119.185C176.813 117.611 173.858 116.681 170.81 116.471C172.775 111.959 175.56 107.85 179.024 104.353L179.21 104.353ZM169.769 118.516C171.489 118.92 173.168 119.48 174.787 120.188C175.79 120.635 176.794 121.229 177.835 121.638L177.537 122.233C175.047 121.898 172.445 121.936 170.104 121.787C168.766 121.787 168.431 123.943 169.806 124.129C172.036 124.426 174.304 124.835 176.571 125.021C176.259 125.954 176.023 126.911 175.865 127.883C175.835 128.353 175.835 128.825 175.865 129.296C175.765 129.178 175.637 129.089 175.493 129.035C172.941 128.499 170.295 128.614 167.799 129.37C167.799 129.37 167.799 128.998 167.799 128.812C167.938 125.301 168.602 121.83 169.769 118.516L169.769 118.516ZM167.576 132.269C170.066 131.86 172.631 131.712 175.01 131.266C175.215 131.214 175.398 131.097 175.53 130.931C175.662 131.505 175.848 132.066 176.088 132.604L175.902 132.604C173.486 133.793 171.07 134.909 168.728 136.321L168.394 136.321C167.978 134.989 167.692 133.62 167.539 132.232L167.576 132.269ZM169.472 139.518L170.141 139.146C172.482 137.845 174.713 136.395 176.98 134.983L176.98 134.983L177.463 135.54C175.187 137.753 173.087 140.139 171.182 142.677C170.488 141.676 169.903 140.605 169.435 139.481L169.472 139.518ZM173.188 144.536C175.49 142.168 177.568 139.592 179.396 136.841C180.669 137.668 182.122 138.178 183.633 138.328L184.971 138.328C183.376 141.657 182.466 145.272 182.295 148.959C181.019 148.687 179.774 148.289 178.578 147.77L179.581 145.54C180.436 143.681 181.366 141.822 182.332 140.075C182.889 139.072 181.18 138.068 180.585 139.072C178.964 141.439 177.523 143.924 176.274 146.506C175.124 145.975 174.039 145.314 173.04 144.536L173.188 144.536ZM184.859 149.331C185.714 145.614 185.9 141.897 187.052 138.551C187.052 138.551 187.052 138.365 187.052 138.254C187.64 138.187 188.223 138.088 188.799 137.957C187.914 141.684 187.914 145.567 188.799 149.294C187.441 149.434 186.072 149.447 184.711 149.331L184.859 149.331ZM204.112 147.473C207.673 145.971 210.973 143.914 213.888 141.376C215.217 142.95 216.341 144.686 217.233 146.543C216.938 146.408 216.599 146.408 216.303 146.543C215.523 146.878 214.78 147.287 213.999 147.696L213.999 147.696C214.742 146.766 213.776 145.279 212.624 145.986C209.715 148.043 206.673 149.906 203.518 151.561C203.232 150.653 202.872 149.771 202.44 148.922C203.026 148.473 203.584 147.989 204.112 147.473L204.112 147.473ZM211.211 152.937C209.911 153.531 208.535 154.052 207.272 154.758C206.577 154.895 205.949 155.262 205.488 155.799L205.488 155.502C209.674 153.702 213.713 151.577 217.567 149.145L217.567 149.145C216.973 151.19 213.256 151.97 211.249 152.9L211.211 152.937ZM195.787 147.472C195.707 143.449 195.334 139.436 194.672 135.466C195.507 139.22 197.005 142.795 199.095 146.023C197.943 146.506 196.865 146.989 195.787 147.472L195.787 147.472ZM197.719 134.462C197.604 134.544 197.503 134.644 197.422 134.76C197.422 134.351 197.05 133.905 196.902 133.496C197.742 132.736 198.513 131.902 199.206 131.005C199.409 131.321 199.788 131.476 200.154 131.393C200.52 131.31 200.795 131.006 200.842 130.634C200.842 129.816 203.22 128.812 203.889 128.441L206.788 126.842C207.978 126.21 209.13 125.541 210.245 124.798L210.617 126.247L210.617 126.508C206.041 128.63 201.725 131.274 197.757 134.388L197.719 134.462ZM210.952 114.65C210.609 111.741 210.012 108.868 209.167 106.063C212.541 104.952 216.061 104.351 219.612 104.279C217.606 108.364 214.648 111.908 210.989 114.613L210.952 114.65ZM222.734 117.438C221.024 115.988 219.017 114.613 217.381 113.275C217.679 112.977 218.05 112.68 218.311 112.345L218.608 112.605C220.355 113.535 222.102 114.464 223.774 115.542C225.369 116.71 227.075 117.719 228.866 118.553C228.197 119.668 227.491 120.746 226.748 121.787C225.711 120.087 224.362 118.598 222.771 117.401L222.734 117.438ZM243.619 93.2327C244.678 91.6648 245.353 89.8694 245.589 87.992C245.589 86.5424 244.362 86.2079 243.136 85.6876C238.224 83.6785 233.01 82.51 227.711 82.231C227.027 82.2307 226.468 82.7741 226.447 83.4575C226.443 85.6841 226.693 87.9037 227.191 90.0736C227.191 90.2966 227.525 90.2966 227.674 90.0736C227.823 90.3374 228.117 90.4844 228.417 90.4453C231.086 90.3043 233.757 90.6571 236.297 91.486L240.831 92.4524L240.571 92.8984C239.754 94.5709 242.504 95.7975 243.21 94.0878L243.21 94.0878C247.028 95.616 250.503 97.8904 253.431 100.778C253.08 100.605 252.668 100.605 252.316 100.778C250.125 102.82 248.279 105.206 246.853 107.84C246.228 107.446 245.583 107.087 244.92 106.762C246.481 104.049 247.819 101.298 249.157 98.5107C249.789 97.2099 247.968 95.9833 247.187 97.2842C245.515 100.109 243.916 102.934 242.467 105.907L240.274 105.312C241.024 102.95 241.93 100.641 242.987 98.399C243.16 98.0803 243.149 97.6937 242.96 97.3849C242.77 97.076 242.43 96.8918 242.068 96.9017C241.705 96.9116 241.376 97.114 241.203 97.4326C239.747 99.7237 238.668 102.233 238.007 104.866L237.561 104.866C237.226 104.866 237.003 105.312 237.3 105.498L237.858 105.833C237.858 106.241 237.858 106.65 237.672 107.059C237.672 108.323 239.27 108.286 239.679 107.319L239.679 106.948C242.995 108.691 246.048 110.893 248.748 113.489C248.487 113.913 248.528 114.456 248.849 114.837C249.17 115.217 249.699 115.348 250.161 115.162L250.532 115.719L249.64 116.165C248.377 116.797 249.38 119.027 250.718 118.47L251.759 118.024C252.162 119.052 252.437 120.125 252.577 121.22C251.053 121.22 251.053 123.71 252.577 124.008C252.549 124.692 252.487 125.374 252.391 126.052C252.014 126.28 251.751 126.655 251.666 127.087C251.581 127.519 251.682 127.966 251.945 128.319C251.691 129.31 251.329 130.269 250.867 131.181C250.329 131.194 249.834 131.477 249.549 131.934C249.265 132.391 249.229 132.96 249.454 133.448L249.083 133.895C248.265 133.895 247.447 134.489 247.633 135.344C241.984 140.25 232.766 141.291 225.89 143.967C224.849 144.376 224.886 146.234 226.187 146.086L227.599 146.086C227.804 149.776 228.738 153.389 230.35 156.716C231.409 159.712 234.043 161.874 237.189 162.328C237.901 162.377 238.548 161.914 238.729 161.223C238.911 160.533 238.577 159.811 237.932 159.503C235.716 158.219 234.01 156.211 233.1 153.817C235.073 156.473 237.613 158.656 240.534 160.21C242.021 161.027 243.842 158.797 242.69 157.534C238.973 153.817 233.807 150.546 233.323 144.896L235.145 144.525C237.449 148.241 239.345 152.218 241.947 155.675C242.69 156.679 244.734 156.121 244.4 154.709C243.233 150.596 241.177 146.79 238.378 143.558L240.348 142.964C241.745 146.869 243.766 150.522 246.332 153.779C247.299 154.82 248.637 153.482 248.377 152.404C247.148 148.704 245.328 145.227 242.987 142.109C243.842 141.737 244.66 141.365 245.477 140.956C246.706 144.224 248.45 147.273 250.644 149.988L248.637 151.995C247.336 153.333 249.269 155.712 250.792 154.56C260.233 147.126 270.231 136.831 269.377 123.673C268.522 110.516 256.256 95.9088 243.619 93.2327L243.619 93.2327ZM241.575 87.6574C242.615 87.9547 242.727 87.6574 242.727 88.4751C242.69 88.9055 242.564 89.3233 242.355 89.7017C240.636 88.2244 238.674 87.0551 236.557 86.245L238.899 86.8026L241.575 87.6574ZM228.343 88.4008C228.502 87.8641 228.626 87.3179 228.715 86.7654C229.977 86.9895 231.22 87.3126 232.432 87.7318C231.032 87.5087 229.598 87.7433 228.343 88.4008L228.343 88.4008ZM264.024 130.029C261.371 128.677 258.612 127.546 255.773 126.647C255.773 125.941 255.773 125.272 255.773 124.528L255.773 124.528C258.498 125.047 261.255 125.383 264.024 125.532C264.164 127.015 264.177 128.507 264.062 129.992L264.024 130.029ZM255.736 121.443C255.736 120.886 255.736 120.365 255.476 119.808C258.1 119.623 260.694 119.137 263.207 118.358C263.504 119.585 263.764 120.849 263.913 122.075C263.913 122.075 263.913 122.335 263.913 122.447C261.208 121.958 258.478 121.623 255.736 121.443L255.736 121.443ZM252.577 113.006C254.692 111.182 256.478 109.007 257.854 106.576C258.338 105.61 257 104.309 256.145 105.126C254.314 106.927 252.625 108.866 251.09 110.925C250.475 110.32 249.816 109.761 249.12 109.252C251.291 107.086 253.087 104.574 254.435 101.818C254.503 101.626 254.503 101.416 254.435 101.224C257.174 104.128 259.388 107.486 260.977 111.148C258.391 111.846 255.897 112.844 253.543 114.121C253.134 113.749 252.874 113.341 252.577 112.932L252.577 113.006ZM261.646 113.006C261.906 113.712 262.129 114.493 262.352 115.236C259.817 115.58 257.325 116.19 254.918 117.057L254.918 116.686C257.26 115.728 259.49 114.519 261.571 113.08L261.646 113.006ZM230.499 147.572C230.138 146.844 229.715 146.147 229.235 145.491L230.35 145.491C230.341 146.212 230.39 146.933 230.499 147.647L230.499 147.572ZM248.414 139.135L249.194 138.503C250.39 141.385 252.264 143.935 254.658 145.937L253.097 147.609C251.883 144.629 250.311 141.809 248.414 139.209L248.414 139.135ZM257.371 143.075L256.739 143.744C255.885 142.517 254.955 141.328 254.026 140.027C253.12 138.841 252.288 137.6 251.536 136.31L252.279 135.381C254.1 137.054 255.661 138.912 257.483 140.548C257.828 140.829 258.313 140.861 258.691 140.625C259.069 140.39 259.256 139.941 259.155 139.507C258.201 136.819 256.451 134.486 254.138 132.817C254.65 131.82 255.061 130.774 255.364 129.695C257.987 130.859 260.712 131.78 263.504 132.445L263.69 132.445C262.481 136.48 260.298 140.156 257.334 143.149L257.371 143.075ZM202.884 65.0601C202.315 69.8243 202.784 74.6554 204.259 79.2211C204.52 79.8529 205.56 79.7786 205.523 78.9981C205.3 74.3149 204.297 69.8176 204.408 65.0972C204.415 64.825 204.276 64.5699 204.043 64.4281C203.811 64.2861 203.52 64.2791 203.281 64.4095C203.042 64.5398 202.891 64.7879 202.884 65.0601L202.884 65.0601ZM205.821 100.183C207.308 99.5136 206.453 97.4692 205.003 97.6177C200.399 98.4281 196.002 100.147 192.069 102.673C191.214 103.156 191.697 104.68 192.701 104.346C197.012 102.859 201.658 102.041 205.821 100.183L205.821 100.183ZM232.431 92.749C231.514 95.827 230.77 98.9537 230.201 102.115C230.201 103.304 231.911 103.861 232.245 102.672C233.102 99.543 233.772 96.366 234.253 93.1578C234.365 92.6548 234.049 92.1559 233.546 92.0431C233.043 91.9303 232.544 92.2464 232.431 92.7491L232.431 92.749ZM235.776 104.271C237.041 100.998 238.132 97.6607 239.047 94.2732C239.418 93.0095 237.597 92.2288 237.114 93.4926C235.695 96.692 234.454 99.9678 233.398 103.305C233.138 104.792 235.182 105.758 235.776 104.271L235.776 104.271Z" id="ic_translate" fill="#000000" fill-rule="evenodd" stroke="none" />
</svg>