<?xml version="1.0" encoding="utf-8"?>
<svg width="302.21155px" height="248.8017px" viewBox="0 0 302.21155 248.8017" version="1.1" xmlns:xlink="http://www.w3.org/1999/xlink" xmlns="http://www.w3.org/2000/svg">
  <path d="M83.7391 9.38831C81.6949 63.282 78.61 118.885 82.1038 172.742C82.0425 174.117 83.1075 175.282 84.4827 175.343C85.8578 175.405 87.0225 174.34 87.0842 172.965C90.5409 118.959 87.4932 63.2818 85.4489 9.23944C85.4117 8.08737 83.7764 8.31036 83.7391 9.38831L83.7391 9.38831ZM84.0736 180.353C106.598 180.65 129.047 180.873 151.496 182.063C171.344 183.14 192.939 185.779 212.527 181.803C213.932 181.639 214.993 180.449 214.993 179.034C214.993 177.619 213.932 176.428 212.527 176.265C193.088 172.251 171.381 174.964 151.719 176.005C129.084 177.194 106.486 177.417 83.8135 177.714C82.1781 177.9 82.4011 180.316 84.0736 180.353L84.0736 180.353ZM36.9095 210.357C36.6122 215.783 44.3431 217.158 47.391 213.664C79.9502 219.834 115.929 217.382 148.86 217.753C183.575 218.236 218.55 220.652 252.931 215.114C253.726 215.013 254.449 214.598 254.937 213.962C256.132 214.442 257.474 214.387 258.625 213.811C259.776 213.236 260.626 212.194 260.959 210.951C265.27 192.59 261.293 170.066 262.817 150.999C264.623 134.957 265.48 118.823 265.382 102.681C265.121 95.9162 265.382 87.4791 259.137 83.0561C249.66 76.2543 236.019 81.941 225.389 79.3393C224.98 55.4403 223.902 31.5784 222.713 8.23672C224.906 8.0509 227.099 7.82791 229.291 7.56775C232.599 7.12177 232.079 2.43854 229.031 1.99246C205.058 -1.50125 179.598 0.65448 155.364 0.69162C131.131 0.72879 106.228 0.134094 81.8086 1.435C80.136 1.435 79.9501 4.2598 81.8086 4.44562C106.228 6.67569 130.982 6.89865 155.475 7.56775C175.844 8.12524 197.067 9.98367 217.62 8.68277C214.944 64.6207 212.38 123.383 219.108 178.95C219.24 179.457 219.698 179.812 220.222 179.812C220.747 179.812 221.205 179.457 221.337 178.95C224.786 147.829 226.202 116.517 225.574 85.2122C233.343 87.5166 243.378 84.952 249.697 89.4866C259.955 96.9203 253.413 121.972 252.336 132.23C250.068 154.531 241.817 186.421 251.406 208.201C217.435 202.924 182.719 205.302 148.376 205.748C116.04 206.194 80.6189 203.704 48.6173 209.465C50.416 186.789 50.776 164.021 49.6952 141.299C49.1377 131.598 47.5767 122.046 46.8333 112.382C46.0155 101.938 47.205 91.7542 57.0916 85.3239C61.0314 82.7592 70.1748 82.908 74.7092 81.8673C75.3655 81.8663 75.8971 81.334 75.8971 80.6778C75.8971 80.0217 75.3655 79.4895 74.7092 79.4887C66.7925 78.2247 50.9218 73.9876 43.5625 79.2654C36.8722 84.0601 36.5005 96.7344 36.1289 103.796C35.6458 118.404 38.6562 133.122 39.1023 147.729C39.9573 169.026 38.0989 189.617 36.9095 210.357L36.9095 210.357ZM9.92688 227.517C27.21 230.936 45.5712 229.822 63.1516 229.97C80.7321 230.119 99.2417 232.014 116.562 228.669C117.447 228.424 118.06 227.618 118.06 226.7C118.06 225.781 117.447 224.975 116.562 224.73C99.2046 221.385 80.6206 223.318 63.0029 223.466C45.3853 223.615 27.1729 222.537 9.88977 225.956C9.03491 226.217 9.18359 227.369 9.92688 227.517L9.92688 227.517ZM34.0121 243.39C27.1215 243.636 20.2224 243.5 13.3468 242.981C8.18042 242.461 5.35559 242.052 4.01758 236.773C3.3606 234.352 3.20874 231.821 3.57153 229.339C3.69177 229.186 3.72339 228.981 3.65515 228.799C3.58667 228.616 3.42834 228.483 3.23706 228.447L2.60522 228.447C2.15222 228.376 1.7085 228.62 1.52734 229.042C0.0960693 232.782 -0.339355 236.829 0.263672 240.788C0.493408 243.172 2.09009 245.204 4.35205 245.992C12.6406 249.709 25.7981 249.189 34.4955 247.293C35.1925 247.207 35.7906 246.755 36.0646 246.108C36.3383 245.461 36.2462 244.717 35.8229 244.157C35.3995 243.596 34.7094 243.304 34.0121 243.39L34.0121 243.39ZM261.368 242.235C187.032 238.519 111.32 240.005 37.0212 243.462C35.7574 243.462 35.9061 245.32 37.0212 245.358C111.172 249.074 186.957 250.227 261.108 246.584C263.635 246.473 263.895 242.347 261.368 242.235L261.368 242.235ZM298.532 221.979C292.882 221.979 287.381 221.719 281.657 221.979C280.502 222.124 279.621 223.083 279.576 224.247C263.928 221.236 247.351 222.76 231.48 223.02C215.61 223.28 198.55 223.02 182.307 224.767L182.307 224.767C181.858 224.55 181.336 224.54 180.879 224.74C180.421 224.941 180.074 225.331 179.928 225.808C177.438 236.475 163.426 232.758 154.394 232.61L137.668 232.387C133.952 232.387 130.569 233.502 128.488 230.305C127.689 228.854 127.352 227.195 127.521 225.548C127.521 225.027 126.815 225.065 126.555 225.362C113.769 240.972 147.035 237.256 154.059 237.478C164.392 237.813 190.001 244.057 183.794 226.811C200.594 228.744 217.766 228.484 234.64 228.93C249.767 229.301 265.601 230.9 280.505 227.926C281.134 227.778 281.641 227.314 281.843 226.7C285.883 227.807 290.035 228.456 294.22 228.632C293.589 230.64 292.956 232.647 292.399 234.654C291.061 239.337 290.726 240.972 285.225 242.088C278.795 243.388 271.845 243.054 265.303 243.797C264.225 243.797 263.817 245.693 265.08 245.841C269.578 246.436 274.112 246.733 278.647 246.919C283.189 247.589 287.811 247.502 292.325 246.659C298.978 244.318 300.427 231.792 302.137 226.143C302.36 225.085 302.075 223.983 301.368 223.166C300.66 222.349 299.61 221.91 298.532 221.979L298.532 221.979ZM162.464 91.9429C182.982 91.0137 192.201 68.562 183.503 51.0542C176.068 35.5908 149.677 27.1157 136.481 39.9027L136.481 40.0886C128.427 46.011 122.642 54.5109 120.088 64.1757C116.408 85.5866 146.368 92.6863 162.464 91.9429L162.464 91.9429ZM180.12 70.1232C179.572 69.5897 178.698 69.5897 178.15 70.1232C174.247 72.3907 170.418 74.7697 166.552 77.1115C166.748 76.6785 166.909 76.2311 167.036 75.7734C167.036 75.476 167.036 75.2158 167.036 74.9184C171.326 72.2907 175.369 69.2798 179.117 65.9229C180.343 64.8077 178.671 63.0607 177.407 64.0272C173.689 66.7407 170.456 69.6401 167.11 72.6138C167.111 71.7608 166.947 70.915 166.627 70.1238C171.125 67.373 175.66 64.5852 180.046 61.6487C180.586 64.4455 180.611 67.3174 180.12 70.1232L180.12 70.1232ZM138.451 82.7244C139.566 81.9066 140.644 81.0145 141.722 80.1224C142.019 80.4941 142.317 80.903 142.651 81.2375C141.833 81.981 140.978 82.6872 140.123 83.3563L138.451 82.7244ZM132.763 79.6021L137.261 76.2566C137.274 77.2925 137.719 78.2761 138.488 78.9702L135.663 81.3863C134.661 80.8639 133.693 80.2805 132.763 79.6392L132.763 79.6021ZM129.418 76.7398C134.159 72.8359 139.124 69.2117 144.287 65.8856C144.886 65.546 145.153 64.8235 144.919 64.1757C146.626 64.791 148.396 65.2148 150.197 65.4396C153.831 66.0242 157.497 64.6031 159.787 61.7224C165.401 58.8304 170.623 55.2328 175.325 51.0169C175.734 51.5745 176.069 52.1321 176.44 52.7268C170.017 56.6796 163.87 61.0636 158.04 65.8485C155.484 65.5493 152.902 65.5493 150.346 65.8485C147.506 66.1885 144.776 67.1533 142.354 68.6735L142.354 68.6735L141.536 69.3055C137.694 71.9072 134.03 74.7634 130.57 77.855L129.418 76.7398ZM125.701 71.2755C130.905 68.3761 136.072 65.39 141.201 62.3171C141.651 62.6467 142.123 62.9448 142.614 63.2093L142.614 63.2093C137.342 66.5965 132.368 70.4266 127.745 74.6581C126.952 73.6293 126.29 72.5054 125.775 71.3127L125.701 71.2755ZM143.766 56.4069C144.478 55.2005 145.599 54.2902 146.926 53.842L147.484 53.842C149.677 53.842 153.134 53.4332 154.583 55.4776C156.851 58.6372 153.208 60.3099 150.532 60.0497C149.093 59.8593 147.683 59.4974 146.331 58.9717L145.476 58.6743C145.231 57.9641 144.506 57.5381 143.766 57.6707C143.554 57.2254 143.597 56.7007 143.878 56.2954L143.766 56.4069ZM164.805 42.8765C161.291 44.3446 158.02 46.3373 155.104 48.7867C154.693 48.6206 154.27 48.4839 153.84 48.3779C156.739 46.1847 159.787 44.1775 162.724 42.0587L164.805 42.8765ZM171.831 47.2256C167.883 49.407 164.245 52.1074 161.014 55.2546C160.99 55.3397 160.99 55.4297 161.014 55.5148C161.014 55.2918 161.014 55.0688 161.014 54.8086C160.789 54.0205 160.451 53.2693 160.01 52.5782C163.727 50.5338 167.073 48.4894 170.567 46.3706L170.827 46.1476L171.831 47.2256ZM173.764 49.1584C169.489 51.7605 165.14 54.6227 161.014 57.7079C161.069 57.1393 161.069 56.5667 161.014 55.998C161.12 56.1245 161.276 56.1976 161.441 56.1976C161.606 56.1976 161.763 56.1245 161.869 55.998C165.372 53.0469 169.1 50.3747 173.021 48.006L173.764 49.1584ZM158.895 51.4259C158.488 50.9761 158.04 50.5654 157.557 50.1992C160.494 48.3035 163.505 46.4821 166.367 44.5492C166.637 44.3505 166.791 44.0297 166.776 43.6942C167.49 44.0396 168.185 44.4243 168.857 44.8466C165.437 46.8538 162.166 49.0841 158.858 51.3144L158.895 51.4259ZM179.377 58.9717C174.439 61.7812 169.707 64.9362 165.214 68.4133C164.033 67.4469 162.647 66.7607 161.163 66.4061C166.664 62.6889 172.314 58.9717 177.63 54.8085C178.328 56.1449 178.912 57.5375 179.377 58.9717L179.377 58.9717ZM152.13 80.3454C151.837 80.1995 151.493 80.1995 151.201 80.3454C150.389 80.2939 149.589 80.1313 148.822 79.8622C145.729 78.8192 143.919 75.6148 144.621 72.4279C149.266 70.2872 154.461 69.638 159.49 70.5693C165.809 73.4687 159.713 79.0816 155.178 80.0109C154.176 80.2243 153.155 80.3364 152.13 80.3454L152.13 80.3454ZM144.696 83.1332C145.249 83.5377 145.833 83.8981 146.443 84.2112C146.308 84.5579 146.308 84.9426 146.443 85.2892C145.352 85.0414 144.287 84.7689 143.246 84.4714C143.791 84.0502 144.274 83.6041 144.696 83.1332L144.696 83.1332ZM149.677 85.1406C151.146 85.3225 152.631 85.3225 154.1 85.1406C153.88 85.5064 153.88 85.9642 154.1 86.33C152.393 86.2195 150.694 86.0211 149.008 85.7353L149.677 85.1406ZM140.235 41.6498C142.878 40.7553 145.628 40.2177 148.413 40.0514C145.662 42.0215 142.911 43.9916 140.161 45.8873C136.741 48.2663 133.024 50.3479 129.641 52.8012L129.641 52.8012C132.432 48.3964 136.086 44.6028 140.384 41.6498L140.235 41.6498ZM127.262 56.5185C136.201 52.5821 144.389 47.1235 151.461 40.386L151.981 40.5718C152.233 40.6801 152.521 40.6615 152.756 40.5218C152.991 40.382 153.146 40.1381 153.171 39.8656L153.691 39.8656C143.977 47.0521 134.635 54.6599 125.664 62.689C125.069 63.2094 125.664 64.2502 126.407 63.7297C136.592 55.8865 146.889 48.1548 157.185 40.4232C158.226 40.609 159.267 40.832 160.271 41.1294C156.911 43.1118 153.76 45.4283 150.866 48.0433C149.159 48.2327 147.569 49.0076 146.368 50.2365C146.195 50.4205 146.056 50.6346 145.959 50.8683C143.199 51.191 140.764 52.8239 139.417 55.2546C138.525 56.7685 138.525 58.6474 139.417 60.1613C134.635 62.9615 129.901 65.8237 125.218 68.7479C124.529 64.4849 125.288 60.114 127.374 56.3326L127.262 56.5185ZM156.405 86.6646C158.376 85.3084 160.424 84.0673 162.538 82.9474C162.688 82.8691 162.816 82.754 162.91 82.6129L163.133 82.6129C168.861 79.7753 174.344 76.4681 179.526 72.7253C179.227 73.7717 178.842 74.7913 178.373 75.7733C178.191 75.8067 178.015 75.8694 177.853 75.9592C172.5 79.1741 167.349 82.712 162.427 86.553C160.457 86.6793 158.482 86.6544 156.516 86.4787L156.405 86.6646ZM111.8 111.67L111.8 111.67C136.073 116.242 164.658 113.826 189.006 110.332C194.693 110.704 196.068 99.8882 188.448 100.52C163.32 102.564 136.742 102.713 111.986 107.024C109.272 107.619 109.755 111.001 111.8 111.67L111.8 111.67ZM184.025 130.848C186.478 130.142 187.147 126.165 184.248 125.459C173.468 122.857 161.647 124.827 150.793 125.236C138.117 125.682 125.293 125.645 112.692 126.945C110.982 126.945 111.242 129.622 112.692 129.807C125.415 131.273 138.209 132.03 151.016 132.075C161.87 132.335 173.542 133.933 184.025 130.848L184.025 130.848ZM121.166 148.167C131.574 151.883 143.171 150.62 154.063 150.731C166.776 150.731 180.306 152.255 192.758 149.542C196.847 148.65 197.739 141.738 193.167 140.808C181.235 138.43 168.671 139.953 156.59 140.808C144.51 141.663 131.797 141.031 120.943 145.826C120.557 146.113 120.349 146.58 120.395 147.059C120.44 147.538 120.733 147.958 121.166 148.167L121.166 148.167Z" id="ic_web_document" fill="#000000" fill-rule="evenodd" stroke="none" />
</svg>